<?xml version="1.0" standalone="no"?><!DOCTYPE svg PUBLIC "-//W3C//DTD SVG 1.1//EN" "http://www.w3.org/Graphics/SVG/1.1/DTD/svg11.dtd"><svg xmlns:xlink="http://www.w3.org/1999/xlink" xmlns="http://www.w3.org/2000/svg" version="1.1" width="32" height="32" viewBox="0 0 32 32"><defs><style type="text/css"><![CDATA[
@font-face {
  font-family: "ifont";
  src: url("//at.alicdn.com/t/font_1442373896_4754455.eot?#iefix") format("embedded-opentype"), url("//at.alicdn.com/t/font_1442373896_4754455.woff") format("woff"), url("//at.alicdn.com/t/font_1442373896_4754455.ttf") format("truetype"), url("//at.alicdn.com/t/font_1442373896_4754455.svg#ifont") format("svg");
}

]]></style></defs><g class="transform-group"><g transform="scale(0.03125, 0.03125)"><path d="M515.347235 959.790606c-246.441808 0-447.775256-201.803145-447.775256-448.813912 0-247.016907 201.333448-448.820052 447.775256-448.820052 247.537769 0 447.772186 201.803145 447.772186 448.820052C963.119421 757.987461 761.783926 959.790606 515.347235 959.790606zM515.347235 106.266255c-222.23857 0-403.77002 180.851974-403.77002 404.709415 0 223.854371 181.53145 404.704298 403.77002 404.704298 223.331461 0 403.764903-181.953052 403.764903-404.704298C919.112138 288.220331 737.580688 106.266255 515.347235 106.266255zM771.107269 720.423937 272.807293 720.423937c-27.599591 0-50.061163-23.131837-50.061163-51.700499L222.74613 353.271906c0-28.553313 22.461571-51.742455 50.061163-51.742455l498.299977 0c27.713178 0 50.061163 23.189142 50.061163 51.742455L821.168432 668.723438C821.168432 697.2921 798.820448 720.423937 771.107269 720.423937zM757.89127 683.376159l-155.777903-142.819776-25.51921 23.131837c-14.886035 13.374612-33.038464 20.247136-54.636365 20.247136-21.48329 0-39.750329-6.872524-54.582129-20.247136l-25.520233-23.131837L286.082644 683.376159 757.89127 683.376159zM259.983219 372.184651l0 285.019429 155.191548-144.485719L259.983219 372.184651zM284.787138 338.577229l198.711737 181.904956c17.34504 15.971763 30.187533 23.904433 38.457894 23.904433s21.112853-7.931646 38.457894-23.904433l198.711737-181.904956L284.787138 338.577229zM783.948739 372.184651 628.757191 512.718361 783.948739 657.20408 783.948739 372.184651z" fill="#a80707"></path></g></g></svg>