<?xml version="1.0" standalone="no"?><!DOCTYPE svg PUBLIC "-//W3C//DTD SVG 1.1//EN" "http://www.w3.org/Graphics/SVG/1.1/DTD/svg11.dtd"><svg xmlns:xlink="http://www.w3.org/1999/xlink" xmlns="http://www.w3.org/2000/svg" version="1.1" width="32" height="32" viewBox="0 0 32 32"><defs><style type="text/css"><![CDATA[
@font-face {
  font-family: "ifont";
  src: url("//at.alicdn.com/t/font_1442373896_4754455.eot?#iefix") format("embedded-opentype"), url("//at.alicdn.com/t/font_1442373896_4754455.woff") format("woff"), url("//at.alicdn.com/t/font_1442373896_4754455.ttf") format("truetype"), url("//at.alicdn.com/t/font_1442373896_4754455.svg#ifont") format("svg");
}

]]></style></defs><g class="transform-group"><g transform="scale(0.03125, 0.03125)"><path d="M512.090112 108.544c54.489088 0 107.33568 10.665984 157.07136 31.70304 48.050176 20.324352 91.209728 49.424384 128.278528 86.493184 37.0688 37.0688 66.168832 80.228352 86.493184 128.278528 21.037056 49.73568 31.70304 102.582272 31.70304 157.07136s-10.665984 107.33568-31.70304 157.07136c-20.324352 48.050176-49.424384 91.209728-86.493184 128.278528-37.0688 37.0688-80.228352 66.168832-128.278528 86.493184-49.73568 21.037056-102.582272 31.70304-157.07136 31.70304s-107.33568-10.665984-157.07136-31.70304c-48.050176-20.324352-91.209728-49.424384-128.278528-86.493184s-66.168832-80.228352-86.493184-128.278528C119.209984 619.425792 108.544 566.5792 108.544 512.090112s10.665984-107.33568 31.70304-157.07136c20.324352-48.050176 49.424384-91.209728 86.493184-128.278528s80.228352-66.168832 128.278528-86.493184C404.754432 119.209984 457.601024 108.544 512.090112 108.544M512.090112 83.968C275.644416 83.968 83.968 275.644416 83.968 512.090112s191.676416 428.122112 428.122112 428.122112 428.122112-191.676416 428.122112-428.122112S748.53376 83.968 512.090112 83.968L512.090112 83.968zM463.392768 568.451072c19.408896 19.474432 46.671872 36.67968 46.671872 36.67968s34.408448 25.423872 59.731968 10.020864c54.253568-33.23904 52.95104-44.797952 79.542272-29.831168 92.905472 52.015104 89.030656 86.523904 86.724608 95.010816-9.28768 33.406976-70.055936 60.499968-136.368128 43.894784-66.648064-16.56832-133.361664-51.746816-187.049984-105.03168-53.252096-53.651456-88.428544-120.332288-105.033728-187.047936-16.5376-66.31424 10.489856-127.049728 43.9296-136.36608 8.521728-2.373632 43.02848-6.180864 95.043584 86.58944 14.86848 26.7264 3.44064 25.45664-29.7984 79.67744-15.566848 25.321472 9.887744 59.734016 9.887744 59.734016S444.051456 549.005312 463.392768 568.451072L463.392768 568.451072zM463.392768 568.451072" fill="#a80707"></path></g></g></svg>