<?xml version="1.0" encoding="utf-8"?>
<!-- Generator: Adobe Illustrator 19.0.0, SVG Export Plug-In . SVG Version: 6.00 Build 0)  -->
<svg version="1.1" id="图层_1" xmlns="http://www.w3.org/2000/svg" xmlns:xlink="http://www.w3.org/1999/xlink" x="0px" y="0px"
	 viewBox="0 0 18 18" style="enable-background:new 0 0 18 18;" xml:space="preserve">
<style type="text/css">
	.st0{fill:#313944;}
</style>
<g id="XMLID_17_">
	<g id="XMLID_18_">
		<path id="XMLID_14_" class="st0" d="M13.2,6.4c-0.1-0.1-0.3-0.1-0.5,0l-1.2,1.2L9.8,9.2v0C9.7,9.4,9.4,9.5,9.1,9.5
			c-0.3,0-0.5-0.1-0.7-0.3v0L6.2,7l0,0L5.6,6.4c-0.1-0.1-0.3-0.1-0.5,0C5,6.5,5,6.7,5.1,6.8L7.3,9l-2.2,2.2c-0.1,0.1-0.1,0.3,0,0.5
			c0.1,0.1,0.3,0.1,0.5,0l2.2-2.2l0.6,0.6c0,0,0.1,0.1,0.1,0.1l0,0v0c0.2,0.1,0.4,0.2,0.6,0.2c0.3,0,0.5-0.1,0.7-0.3v0l0.7-0.6
			l2.2,2.2c0.1,0.1,0.3,0.1,0.5,0c0.1-0.1,0.1-0.3,0-0.5L11,9l2.2-2.2C13.3,6.7,13.3,6.5,13.2,6.4z"/>
		<path id="XMLID_20_" class="st0" d="M9,0C4,0,0,4,0,9c0,5,4,9,9,9c5,0,9-4,9-9C18,4,14,0,9,0z M14.6,12.4c0,0.4-0.3,0.7-0.7,0.7
			H4.4c-0.4,0-0.7-0.3-0.7-0.7V5.6c0-0.4,0.3-0.7,0.7-0.7h9.6c0.4,0,0.7,0.3,0.7,0.7V12.4z"/>
	</g>
</g>
</svg>
