<?xml version="1.0" encoding="utf-8"?>
<!-- Generator: Adobe Illustrator 19.0.0, SVG Export Plug-In . SVG Version: 6.00 Build 0)  -->
<svg version="1.1" id="图层_1" xmlns="http://www.w3.org/2000/svg" xmlns:xlink="http://www.w3.org/1999/xlink" x="0px" y="0px"
	 viewBox="0 0 30 30" style="enable-background:new 0 0 30 30;" xml:space="preserve">
<style type="text/css">
	.st0{fill:#FFFFFF;}
</style>
<path id="XMLID_7_" class="st0" d="M27.9,18C27.9,18,27.9,18,27.9,18c1-0.9,1.5-2,1.5-3.1c0-0.9-0.4-1.8-1.2-2.7
	C29.4,11.3,30,10.2,30,9c0-3.9-6.3-6.7-15-6.7C6.3,2.2,0,5.1,0,9c0,1.2,0.6,2.3,1.7,3.2c-0.8,0.8-1.2,1.8-1.2,2.7
	C0.5,16.1,1,17.1,2,18l-0.1,0.1c-0.9,0.9-1.4,1.9-1.4,3c0,3.8,6.1,6.6,14.5,6.6c8.4,0,14.5-2.8,14.5-6.6c0-1-0.5-2-1.3-2.9L27.9,18z
	 M3.9,14l0.3-0.3c2.7,1.2,6.4,1.9,10.8,1.9c4.4,0,8.2-0.7,10.9-2c0.1,0.1,0.1,0.2,0.2,0.3c0.3,0.3,0.5,0.7,0.5,0.9
	c0,1.3-4.1,3.7-11.6,3.7c-7.5,0-11.6-2.4-11.6-3.7C3.4,14.6,3.5,14.4,3.9,14z M15,24.8c-7.5,0-11.6-2.4-11.6-3.7c0-0.3,0-0.5,0.5-1
	l0.5-0.5c2.6,1.2,6.2,1.9,10.5,1.9c4.3,0,7.9-0.7,10.5-1.9l0.6,0.6c0.3,0.3,0.5,0.7,0.5,0.9C26.5,22.4,22.5,24.8,15,24.8z"/>
</svg>
