<?xml version="1.0" encoding="utf-8"?>
<!-- Generator: Adobe Illustrator 19.0.0, SVG Export Plug-In . SVG Version: 6.00 Build 0)  -->
<svg version="1.1" id="图层_1" xmlns="http://www.w3.org/2000/svg" xmlns:xlink="http://www.w3.org/1999/xlink" x="0px" y="0px"
	 viewBox="0 0 30 30" style="enable-background:new 0 0 30 30;" xml:space="preserve">
<style type="text/css">
	.st0{fill:#FFFFFF;}
</style>
<g id="XMLID_6_">
	<path id="XMLID_9_" class="st0" d="M15,24.2c8.2,0,14.9-4.9,14.9-11.3S23.2,1.3,15,1.3C6.8,1.3,0.2,6.5,0.2,12.9S6.8,24.2,15,24.2z
		 M14.3,3.3l3.2,2L12.5,10l10.2-1.9l3.7,2.2L16.9,12l-0.6,10.3l-3.1-2.1l0.7-7.9l-4.1,0.6l-3.5,3.6l-2.8-1.7L14.3,3.3z"/>
	<path id="XMLID_2_" class="st0" d="M0,14l0-0.6C0,13.4,0,13.6,0,14z"/>
	<path id="XMLID_1_" class="st0" d="M14.9,25.1C1.8,24.3,0.2,16.2,0,14l0.2,4.2l0.1,0.3c2.4,10.6,14.7,10.2,14.7,10.2
		c12.9,0.1,15-10,15-10l0.1-4.8C28.8,25.1,14.9,25.1,14.9,25.1z"/>
</g>
</svg>
