<?xml version="1.0" encoding="utf-8"?>
<!-- Generator: Adobe Illustrator 19.0.0, SVG Export Plug-In . SVG Version: 6.00 Build 0)  -->
<svg version="1.1" id="图层_1" xmlns="http://www.w3.org/2000/svg" xmlns:xlink="http://www.w3.org/1999/xlink" x="0px" y="0px"
	 viewBox="0 0 18 18" style="enable-background:new 0 0 18 18;" xml:space="preserve">
<style type="text/css">
	.st0{fill:#FFFFFF;}
</style>
<g id="XMLID_9_">
	<path id="XMLID_16_" class="st0" d="M9,18c-2.4,0-4.7-0.9-6.4-2.6C0.9,13.7,0,11.4,0,9c0-2.4,0.9-4.7,2.6-6.4C4.3,0.9,6.6,0,9,0
		c2.4,0,4.7,0.9,6.4,2.6C17.1,4.3,18,6.6,18,9c0,2.4-0.9,4.7-2.6,6.4C13.7,17.1,11.4,18,9,18L9,18z M9,1.3c-2.1,0-4,0.8-5.5,2.3
		C2.1,5,1.3,6.9,1.3,9c0,2.1,0.8,4,2.3,5.5C5,15.9,6.9,16.7,9,16.7c2.1,0,4-0.8,5.5-2.3c1.5-1.5,2.3-3.4,2.3-5.5
		c0-2.1-0.8-4-2.3-5.5C13,2.1,11.1,1.3,9,1.3L9,1.3z M9,1.3"/>
	<path id="XMLID_13_" class="st0" d="M5.3,6.8C5.1,4.5,6.4,3.2,8.3,2.8c1.2-0.2,2.3,0,3.3,0.8c1.2,1,1.5,3.2,0.3,4.4
		c-0.5,0.5-0.9,1-1.4,1.4c-0.7,0.6-1,1.4-1,2.4c0,0.1,0,0.1,0,0.2H8.1c0-1,0.1-2,0.8-2.8c0.6-0.6,1.1-1.3,1.7-1.9
		c0.5-0.6,0.6-1.2,0.4-1.9c-0.2-0.8-0.8-1.4-1.7-1.4c-0.3,0-0.6,0-0.9,0C7.6,4.3,7,4.9,6.8,5.9c0,0.3-0.1,0.6-0.1,0.9H5.3L5.3,6.8z
		 M5.3,6.8"/>
	<path id="XMLID_10_" class="st0" d="M9.7,15.2H8.1v-1.7h1.6V15.2L9.7,15.2z M9.7,15.2"/>
</g>
</svg>
