<?xml version="1.0" encoding="utf-8"?>
<!-- Generator: Adobe Illustrator 19.0.0, SVG Export Plug-In . SVG Version: 6.00 Build 0)  -->
<svg version="1.1" id="图层_1" xmlns="http://www.w3.org/2000/svg" xmlns:xlink="http://www.w3.org/1999/xlink" x="0px" y="0px"
	 viewBox="0 0 18 18" style="enable-background:new 0 0 18 18;" xml:space="preserve">
<style type="text/css">
	.st0{fill:#323A45;}
</style>
<g id="XMLID_11_">
	<path id="XMLID_22_" class="st0" d="M8.3,12.8c0,0.2,0.1,0.4,0.2,0.5c0.1,0.1,0.3,0.2,0.5,0.2s0.4-0.1,0.5-0.2
		c0.1-0.1,0.2-0.3,0.2-0.5s-0.1-0.4-0.2-0.5c-0.1-0.1-0.3-0.2-0.5-0.2s-0.4,0.1-0.5,0.2C8.3,12.5,8.3,12.7,8.3,12.8L8.3,12.8z"/>
	<path id="XMLID_19_" class="st0" d="M9.8,4.3C9.8,4.3,9.8,4.2,9.8,4.3L8.1,4.2c0,0-0.1,0-0.1,0.1l0,0c0,0,0,0.1,0.1,0.1L9.8,4.3
		C9.8,4.4,9.8,4.4,9.8,4.3L9.8,4.3L9.8,4.3z"/>
	<path id="XMLID_16_" class="st0" d="M11.6,4.8H6.3C6.2,4.8,6,4.9,6,5v6.4c0,0.1,0.1,0.2,0.3,0.2h5.3c0.1,0,0.2-0.1,0.2-0.2V5.1
		C11.8,4.9,11.7,4.8,11.6,4.8L11.6,4.8z"/>
	<path id="XMLID_12_" class="st0" d="M9,0C4,0,0,4,0,9s4,9,9,9s9-4,9-9S14,0,9,0L9,0z M12.3,13.6c0,0.3-0.2,0.5-0.5,0.5H6.1
		c-0.3,0-0.5-0.2-0.5-0.5V4.4c0-0.3,0.2-0.5,0.5-0.5h5.7c0.3,0,0.5,0.2,0.5,0.5L12.3,13.6L12.3,13.6z"/>
</g>
</svg>
