<?xml version="1.0" encoding="utf-8"?>
<!-- Generator: Adobe Illustrator 19.0.0, SVG Export Plug-In . SVG Version: 6.00 Build 0)  -->
<svg version="1.1" id="图层_1" xmlns="http://www.w3.org/2000/svg" xmlns:xlink="http://www.w3.org/1999/xlink" x="0px" y="0px"
	 viewBox="0 0 12 12" style="enable-background:new 0 0 12 12;" xml:space="preserve">
<style type="text/css">
	.st0{fill:#828282;}
</style>
<g>
	<path class="st0" d="M10.2,1.8C9.1,0.6,7.6,0,6,0C4.4,0,2.9,0.6,1.8,1.8C0.6,2.9,0,4.4,0,6c0,1.6,0.6,3.1,1.8,4.2
		C2.9,11.4,4.4,12,6,12c1.6,0,3.1-0.6,4.2-1.8C12.6,7.9,12.6,4.1,10.2,1.8L10.2,1.8L10.2,1.8L10.2,1.8z M9.7,9.7
		c-1,1-2.3,1.5-3.7,1.5c-1.4,0-2.7-0.5-3.7-1.5c-1-1-1.5-2.3-1.5-3.7c0-1.4,0.5-2.7,1.5-3.7c1-1,2.3-1.5,3.7-1.5
		c1.4,0,2.7,0.5,3.7,1.5C11.7,4.3,11.7,7.7,9.7,9.7L9.7,9.7L9.7,9.7L9.7,9.7z M8.6,7.5L6.5,6.3V3c0-0.3-0.2-0.5-0.5-0.5
		C5.7,2.5,5.5,2.7,5.5,3v3.5c0,0.2,0.2,0.3,0.4,0.4C5.9,7,6.1,7,6.1,7.1l2.1,1.3c0.2,0.1,0.5,0.1,0.6-0.2C9,7.9,8.8,7.6,8.6,7.5
		L8.6,7.5L8.6,7.5L8.6,7.5z M8.6,7.5"/>
</g>
</svg>
