<?xml version="1.0" encoding="utf-8"?>
<!-- Generator: Adobe Illustrator 19.0.0, SVG Export Plug-In . SVG Version: 6.00 Build 0)  -->
<svg version="1.1" id="图层_1" xmlns="http://www.w3.org/2000/svg" xmlns:xlink="http://www.w3.org/1999/xlink" x="0px" y="0px"
	 viewBox="0 0 18 18" style="enable-background:new 0 0 18 18;" xml:space="preserve">
<style type="text/css">
	.st0{fill:#FFFFFF;}
</style>
<path class="st0" d="M15.4,2.6C13.7,0.9,11.4,0,9,0C6.6,0,4.3,0.9,2.6,2.6S0,6.6,0,9c0,2.4,0.9,4.7,2.6,6.4S6.6,18,9,18
	c2.4,0,4.7-0.9,6.4-2.6c1.7-1.7,2.6-4,2.6-6.4C18,6.6,17.1,4.3,15.4,2.6z M9.7,15.2H8.1v-1.7h1.6V15.2z M11.9,8
	c-0.5,0.5-0.9,1-1.4,1.4c-0.7,0.6-1,1.4-1,2.4c0,0.1,0,0.1,0,0.2H8.1c0-1,0.1-2,0.8-2.8c0.6-0.6,1.1-1.3,1.7-1.9
	c0.5-0.6,0.6-1.2,0.4-1.9C10.8,4.6,10.2,4,9.3,4C9,4,8.7,4,8.4,4C7.6,4.3,7,4.9,6.8,5.9c0,0.3-0.1,0.6-0.1,0.9H5.3
	c-0.2-2.3,1.1-3.6,3-4c1.2-0.2,2.3,0,3.3,0.8C12.8,4.6,13.1,6.8,11.9,8z"/>
</svg>
