<?xml version="1.0" encoding="utf-8"?>
<!-- Generator: Adobe Illustrator 16.0.0, SVG Export Plug-In . SVG Version: 6.00 Build 0)  -->
<!DOCTYPE svg PUBLIC "-//W3C//DTD SVG 1.1//EN" "http://www.w3.org/Graphics/SVG/1.1/DTD/svg11.dtd">
<svg version="1.1" id="图层_1" xmlns="http://www.w3.org/2000/svg" xmlns:xlink="http://www.w3.org/1999/xlink" x="0px" y="0px"
	 width="24px" height="30px" viewBox="0 0 24 30" enable-background="new 0 0 24 30" xml:space="preserve">
<path fill-rule="evenodd" clip-rule="evenodd" fill="#FFFFFF" d="M23.563,9.405c-6.693,4.376-15.927,4.631-21.985,0.668
	C1.013,9.73,0.565,9.215,0.001,8.871c0,0,0,0,0,0c0.019,1.495,0.035,2.949,0.577,4.418c0,0-0.001,0.002,0,0.002
	c0.001,0,0.002-0.002,0.002-0.002c0.269,0.48,0.45,0.8,1.816,1.635c0,0,0,0-0.001,0.001c5.843,2.64,11.817,2.865,17.811,0.657
	C23.752,14.275,24.499,12.662,23.563,9.405z"/>
<path fill-rule="evenodd" clip-rule="evenodd" fill="#FFFFFF" d="M23.563,15.862c-6.693,4.376-15.927,4.631-21.985,0.669
	c-0.565-0.344-1.013-0.859-1.577-1.202c0,0,0,0,0,0c0.019,1.494,0.035,2.948,0.577,4.416c0,0.003-0.001,0.003,0,0.003
	c0.001,0.002,0.002,0,0.002-0.003c0.269,0.481,0.45,0.801,1.816,1.638c0,0,0,0-0.001,0c5.843,2.64,11.817,2.864,17.811,0.655
	C23.752,20.732,24.499,19.118,23.563,15.862z"/>
<path fill-rule="evenodd" clip-rule="evenodd" fill="#FFFFFF" d="M23.563,22.319c-6.693,4.376-15.927,4.632-21.985,0.67
	c-0.565-0.346-1.013-0.859-1.577-1.203c0,0,0,0,0,0c0.019,1.493,0.035,2.947,0.577,4.418c0,0-0.001,0.002,0,0.002
	c0.001,0.002,0.002-0.002,0.002-0.002c0.269,0.48,0.45,0.799,1.816,1.634c0,0,0,0-0.001,0.002c5.843,2.64,11.817,2.863,17.811,0.657
	C23.752,27.188,24.499,25.577,23.563,22.319z"/>
<path fill-rule="evenodd" clip-rule="evenodd" fill="#FFFFFF" d="M21.282,2.09C15.127-0.728,8.785-0.65,2.576,2.044
	C0.495,2.947-0.283,4.308,0.323,6.683c0,0.001,0,0.001,0,0.002c0-0.001,0.001-0.001,0.003-0.002c0.636,0.854,0.904,1.07,1.816,1.49
	c0,0-0.001,0-0.002,0.001c6.347,2.503,12.764,2.815,19.048,0.028C24.735,6.631,24.777,3.689,21.282,2.09z"/>
</svg>
