<?xml version="1.0" standalone="no"?><!DOCTYPE svg PUBLIC "-//W3C//DTD SVG 1.1//EN" "http://www.w3.org/Graphics/SVG/1.1/DTD/svg11.dtd"><svg xmlns:xlink="http://www.w3.org/1999/xlink" xmlns="http://www.w3.org/2000/svg" version="1.1" width="32" height="32" viewBox="0 0 32 32"><defs><style type="text/css"><![CDATA[
@font-face {
  font-family: "ifont";
  src: url("//at.alicdn.com/t/font_1442373896_4754455.eot?#iefix") format("embedded-opentype"), url("//at.alicdn.com/t/font_1442373896_4754455.woff") format("woff"), url("//at.alicdn.com/t/font_1442373896_4754455.ttf") format("truetype"), url("//at.alicdn.com/t/font_1442373896_4754455.svg#ifont") format("svg");
}

]]></style></defs><g class="transform-group"><g transform="scale(0.03125, 0.03125)"><path d="M611.94427 725.041094c0 0 8.832156-189.81409 5.634324-287.664675-1.264806-38.698371 0-83.857896 0-83.857896-3.173273-22.952758 29.509081-12.304234 31.061436-12.159948 44.110637 4.105504 174.938288 93.341898 199.913099 111.497397 8.897647 6.464225 19.771299 8.962116 30.598902 7.020904 19.656689-3.551896 33.177634-20.120246 32.158421-39.401382C901.638161 238.312664 753.443981 85.758176 566.628178 65.659419c-16.987906-1.830695-34.355459-2.541893-51.616588-2.178619-21.945825 0.562818-38.090527 14.262842-43.025932 34.989909-2.026146 8.615215-1.690502 16.397459-1.001817 23.440875l18.890232 471.837278c-59.216683-20.032242-127.620609-21.63167-190.526311-3.574409-88.48324 25.464975-151.529135 63.812351-176.344311 134.86664-19.213597 55.175647-8.31027 104.501052 29.02301 154.095587 17.659195 23.39585 48.306192 47.432289 76.534094 58.360176 138.847302 53.750181 277.025361-5.78168 320.104505-46.545082C611.94427 831.073012 613.078093 750.356666 611.94427 725.041094z" fill="#fff"></path></g></g></svg>