<?xml version="1.0" encoding="utf-8"?>
<!-- Generator: Adobe Illustrator 19.0.0, SVG Export Plug-In . SVG Version: 6.00 Build 0)  -->
<svg version="1.1" id="图层_1" xmlns="http://www.w3.org/2000/svg" xmlns:xlink="http://www.w3.org/1999/xlink" x="0px" y="0px"
	 viewBox="0 0 20 20" style="enable-background:new 0 0 20 20;" xml:space="preserve">
<style type="text/css">
	.st0{fill:#040000;}
</style>
<path id="XMLID_6_" class="st0" d="M14.9,0H4.8C3.1,0,3.1,1.6,3.1,1.6V18c0,2,1.7,2,1.7,2h10.3c1.9,0,1.9-1.9,1.9-1.9V1.6
	C16.9-0.3,14.9,0,14.9,0z M8.4,1.5h3.3c0.1,0,0.3,0.1,0.3,0.3C12,1.9,11.9,2,11.7,2H8.4C8.3,2,8.1,1.9,8.1,1.7
	C8.1,1.5,8.3,1.5,8.4,1.5z M10,19.5c-0.7,0-1.1-0.5-1.1-1.1c0-0.5,0.4-1.1,1.1-1.1s1.1,0.5,1.1,1.1C11.1,19.1,10.5,19.5,10,19.5z
	 M14.8,16c0,0,0,0.8-0.7,0.8H5.9c0,0-0.7,0-0.7-0.9c0,0,0-12.4,0-11.7c0,0-0.1-0.8,0.7-0.8h8.3c0,0,0.7-0.1,0.7,0.8V16z"/>
</svg>
