<?xml version="1.0" encoding="utf-8"?>
<!-- Generator: Adobe Illustrator 19.0.0, SVG Export Plug-In . SVG Version: 6.00 Build 0)  -->
<svg version="1.1" id="图层_1" xmlns="http://www.w3.org/2000/svg" xmlns:xlink="http://www.w3.org/1999/xlink" x="0px" y="0px"
	 viewBox="0 0 70 70" style="enable-background:new 0 0 70 70;" xml:space="preserve">
<style type="text/css">
	.st0{fill:#3AA13F;}
</style>
<g id="XMLID_8_">
	<path id="XMLID_13_" class="st0" d="M35,0C15.7,0,0,15.7,0,35c0,19.3,15.7,35,35,35c19.3,0,35-15.7,35-35C70,15.7,54.3,0,35,0L35,0
		z M35,66.2c-17.3,0-31.2-14-31.2-31.2c0-17.3,14-31.2,31.2-31.2c17.3,0,31.2,14,31.2,31.2C66.2,52.3,52.3,66.2,35,66.2L35,66.2z
		 M35,66.2"/>
	<path id="XMLID_17_" class="st0" d="M33.4,44.4l-7.8-6.9c-0.9-0.9-2.4-0.9-3.4,0c-0.9,0.9-0.9,2.4,0,3.4l9.9,9.2
		c0.9,0.9,2.4,0.9,3.4,0l15.2-26.8c0.8-1.2,1.2-2.9-0.3-3.8c-1.1-0.7-2.9-0.8-3.6,1.1L33.4,44.4z"/>
</g>
</svg>
