<?xml version="1.0" encoding="utf-8"?>
<!-- Generator: Adobe Illustrator 19.0.0, SVG Export Plug-In . SVG Version: 6.00 Build 0)  -->
<svg version="1.1" id="图层_1" xmlns="http://www.w3.org/2000/svg" xmlns:xlink="http://www.w3.org/1999/xlink" x="0px" y="0px"
	 viewBox="0 0 33 33" style="enable-background:new 0 0 33 33;" xml:space="preserve">
<style type="text/css">
	.st0{fill:#FFFFFF;}
</style>
<g id="XMLID_13_">
	<path id="XMLID_14_" class="st0" d="M23.5,11.8c0.9,1.3,1.4,2.9,1.4,4.6c0,4.6-3.7,8.3-8.3,8.3c-4.6,0-8.3-3.7-8.3-8.3
		c0-4.6,3.7-8.3,8.3-8.3c1.9,0,3.6,0.6,5,1.7c0.8-0.9,1.4-1.7,2-2.4c-1.9-1.5-4.4-2.4-7-2.4C10.1,5,5,10.1,5,16.5
		s5.2,11.6,11.5,11.6c6.4,0,11.6-5.2,11.6-11.6c0-2.5-0.6-5-2.1-7C26,9.5,24.5,10.9,23.5,11.8L23.5,11.8z M22.1,13.8
		C22.1,13.8,22.1,13.8,22.1,13.8C22.1,13.8,22.1,13.8,22.1,13.8L22.1,13.8L22.1,13.8L22.1,13.8z M22,13.8L22,13.8
		C22.1,13.8,22.1,13.8,22,13.8C22,13.8,22,13.8,22,13.8C22,13.8,22,13.8,22,13.8L22,13.8L22,13.8z M19.6,11.1
		C19.5,11.1,19.5,11.1,19.6,11.1L19.6,11.1C19.5,11.1,19.5,11.1,19.6,11.1L19.6,11.1L19.6,11.1z M22.1,13.8L22.1,13.8
		c-0.1,0-0.1,0.1-0.2,0.1C21.9,13.8,22,13.8,22.1,13.8L22.1,13.8L22.1,13.8z M22.1,13.8L22.1,13.8c-0.1,0-0.1,0.1-0.2,0.1
		c-0.9,0.8-1.6,1.7-2.4,2.5c0,0,0,0.1,0,0.1c0,1.6-1.3,3-3,3c-1.6,0-3-1.3-3-3c0-1.6,1.3-3,3-3c0.2,0,0.3,0,0.5,0c0,0,0,0,0.1,0
		c0.9-0.8,1.7-1.6,2.5-2.4l-0.1-0.1c-0.9-0.5-1.9-0.8-3-0.8c-3.4,0-6.2,2.8-6.2,6.2s2.8,6.2,6.2,6.2c3.4,0,6.2-2.8,6.2-6.2
		C22.7,15.5,22.5,14.6,22.1,13.8L22.1,13.8L22.1,13.8z M27,8.5c1.7,2.2,2.7,5,2.7,8c0,7.3-5.9,13.2-13.2,13.2
		c-7.3,0-13.2-5.9-13.2-13.2c0-7.3,5.9-13.2,13.2-13.2c3.1,0,5.9,1.1,8.1,2.8c0.3-0.6,1.4-2.5,1.5-3c-2.7-2-6.1-3.1-9.7-3.1
		C7.4,0,0,7.4,0,16.5C0,25.6,7.4,33,16.5,33C25.6,33,33,25.6,33,16.5c0-3.5-1.1-6.8-3-9.5C29.4,7.4,27.9,8.1,27,8.5L27,8.5z M26,6.4
		L15.9,16.5l0.9,0.9L26.9,7.3C26.6,6.9,26.3,6.6,26,6.4L26,6.4L26,6.4z M32.1,0.3l-1.5,1.5c0.2,0.3,0.5,0.4,0.7,0.7
		c0,0.1,0.1,0.1,0.1,0.2L33,1.1L32.1,0.3L32.1,0.3L32.1,0.3z M31.8,3.1c0.6,0.6,0.6,1.5,0,2.1c0,0-2.5,1.4-3.1,1.6
		c-0.6,0.2-1.5,0.6-2.1,0l-0.1-0.1c-0.6-0.6-0.3-1.5,0-2.1c0.3-0.6,1.6-3.1,1.6-3.1c0.6-0.6,1.5-0.6,2.1,0L31.8,3.1L31.8,3.1
		L31.8,3.1z M31.8,3.1"/>
</g>
</svg>
