<?xml version="1.0" encoding="utf-8"?>
<!-- Generator: Adobe Illustrator 19.0.0, SVG Export Plug-In . SVG Version: 6.00 Build 0)  -->
<svg version="1.1" id="图层_1" xmlns="http://www.w3.org/2000/svg" xmlns:xlink="http://www.w3.org/1999/xlink" x="0px" y="0px"
	 viewBox="0 0 20 20" style="enable-background:new 0 0 20 20;" xml:space="preserve">
<style type="text/css">
	.st0{fill:#323A45;}
</style>
<g id="XMLID_18_">
	<path id="XMLID_19_" class="st0" d="M20.3,20H-0.3c-0.6,0-1.1-0.5-1.1-1.1V1.1C-1.4,0.5-0.9,0-0.3,0h20.6c0.6,0,1.1,0.5,1.1,1.1
		v17.7C21.4,19.4,20.9,20,20.3,20L20.3,20z M16.1,18.9h4.2V9.7H20l0,0h-3.9V18.9L16.1,18.9z M5,18.9h10V9.7H5V18.9L5,18.9z
		 M-0.3,18.9h4.2V9.7h-4.2V18.9L-0.3,18.9z M0.8,1.1c-0.6,0-1.1,0.6-1.1,1.1c0,0.6,0.5,1.1,1.1,1.1s1.1-0.5,1.1-1.1
		C1.8,1.7,1.4,1.1,0.8,1.1L0.8,1.1z M3.9,1.1c-0.6,0-1.1,0.6-1.1,1.1c0,0.6,0.5,1.1,1.1,1.1S5,2.7,5,2.1C5,1.7,4.5,1.1,3.9,1.1
		L3.9,1.1z M7.1,1.1c-0.6,0-1.1,0.6-1.1,1.1c0,0.6,0.5,1.1,1.1,1.1s1.1-0.5,1.1-1.1C8.2,1.7,7.7,1.1,7.1,1.1L7.1,1.1z M19.2,4.4H0.8
		h-1.1v4.2h4.2H5h10h1.1H20l0,0h0.3V4.4H19.2L19.2,4.4z"/>
</g>
</svg>
