<?xml version="1.0" standalone="no"?><!DOCTYPE svg PUBLIC "-//W3C//DTD SVG 1.1//EN" "http://www.w3.org/Graphics/SVG/1.1/DTD/svg11.dtd"><svg xmlns:xlink="http://www.w3.org/1999/xlink" xmlns="http://www.w3.org/2000/svg" version="1.1" width="16" height="16" viewBox="0 0 16 16"><defs><style type="text/css"><![CDATA[
@font-face {
  font-family: "ifont";
  src: url("//at.alicdn.com/t/font_1442373896_4754455.eot?#iefix") format("embedded-opentype"), url("//at.alicdn.com/t/font_1442373896_4754455.woff") format("woff"), url("//at.alicdn.com/t/font_1442373896_4754455.ttf") format("truetype"), url("//at.alicdn.com/t/font_1442373896_4754455.svg#ifont") format("svg");
}

]]></style></defs><g class="transform-group"><g transform="scale(0.015625, 0.015625)"><path d="M951.712 120.384c12.448-12.448 12.448-32.8 0-45.28l-1.408-1.376c-12.448-12.48-32.8-12.48-45.248-0.032l-369.728 369.696c-12.448 12.448-32.8 12.448-45.248 0l-369.824-369.696c-12.448-12.448-32.8-12.448-45.248 0l-1.408 1.44c-12.448 12.448-12.448 32.8 0 45.248l369.792 369.664c12.448 12.448 12.448 32.8 0 45.248l-369.792 369.728c-12.448 12.448-12.448 32.8 0 45.248l1.408 1.44c12.448 12.448 32.8 12.448 45.248 0l369.824-369.728c12.448-12.448 32.8-12.448 45.248 0l369.728 369.728c12.448 12.448 32.8 12.448 45.248-0.032l1.408-1.376c12.448-12.48 12.416-32.832 0-45.28l-369.696-369.728c-12.448-12.448-12.448-32.8 0-45.248L951.712 120.384z" fill="#fff"></path></g></g></svg>