<?xml version="1.0" encoding="utf-8"?>
<!-- Generator: Adobe Illustrator 19.0.0, SVG Export Plug-In . SVG Version: 6.00 Build 0)  -->
<svg version="1.1" id="图层_1" xmlns="http://www.w3.org/2000/svg" xmlns:xlink="http://www.w3.org/1999/xlink" x="0px" y="0px"
	 viewBox="0 0 30 30" style="enable-background:new 0 0 30 30;" xml:space="preserve">
<style type="text/css">
	.st0{fill:#ACADB0;}
</style>
<g id="XMLID_13_">
	<path id="XMLID_26_" class="st0" d="M19.6,18.8c-1.5-1.2-3.2-1.9-4.7-1.9c-0.7,0-1.5,0.4-2.3,0.8c-0.5-0.6-1.1-1.6-1.5-2.2
		c-0.3-0.6-0.7-1.4-1-2.1c0.5-0.2,1-0.5,1.3-0.9c1.1-1.3,1.6-3.4,1.3-5.7c-0.4-3.4-2.6-6.2-5-6.3C6.5,0.4,4.9,0.7,3.8,1.4
		C2.2,2.3,1,3.9,0.4,6c-1.1,3.9,0,9.2,2.8,14.1C6.6,26,11.9,30,16.3,30c1.2,0,2.3-0.3,3.3-0.9c0.5-0.3,2.4-1.4,2.9-3.1
		C23.1,24.1,22.6,21.2,19.6,18.8L19.6,18.8z M20.5,25.5c-0.2,0.7-1.1,1.4-1.9,1.9c-0.7,0.4-1.5,0.6-2.3,0.6C12.7,27.9,8,24.3,5,19
		C2.5,14.7,1.5,9.9,2.4,6.6C2.9,5,3.7,3.9,4.8,3.2c0.7-0.4,1.7-0.6,2.5-0.6c0.1,0,0.2,0,0.3,0c1,0.1,2.7,1.7,3,4.5
		c0.2,1.7-0.1,3.3-0.8,4.1c-0.1,0.1-0.3,0.2-1.2,0.5c-1,0.3-1,1-0.9,1.3c0.3,1,0.9,2.6,1.5,3.6c0.4,0.7,1.1,1.7,1.3,2
		c0.9,1.2,1.2,1.6,1.7,1.6c0.3,0,0.5-0.1,0.9-0.4c0.3-0.2,1.2-0.7,1.6-0.7c1,0,2.3,0.5,3.4,1.4C20.5,22.2,20.9,24.2,20.5,25.5
		L20.5,25.5z M20.5,25.5"/>
	<path id="XMLID_23_" class="st0" d="M15.9,7.3c-0.6,0-1,0.5-1,1v1c0,0.6,0.5,1,1,1c0.6,0,1-0.5,1-1v-1C17,7.8,16.5,7.3,15.9,7.3
		L15.9,7.3z M15.9,7.3"/>
	<path id="XMLID_20_" class="st0" d="M24.1,7.3c-0.6,0-1,0.5-1,1v1c0,0.6,0.5,1,1,1c0.6,0,1-0.5,1-1v-1C25.2,7.8,24.7,7.3,24.1,7.3
		L24.1,7.3z M24.1,7.3"/>
	<path id="XMLID_17_" class="st0" d="M22.6,12c-0.5-0.3-1.1-0.2-1.4,0.3c0,0-0.5,0.7-1.1,0.7c-0.7,0-1.1-0.6-1.1-0.6
		c-0.3-0.5-0.9-0.6-1.4-0.3c-0.5,0.3-0.6,1-0.3,1.4c0.4,0.6,1.4,1.6,2.9,1.6c1.5,0,2.5-1,2.9-1.6C23.2,13,23.1,12.4,22.6,12L22.6,12
		z M22.6,12"/>
	<path id="XMLID_14_" class="st0" d="M17.5,0c-1.3,0-2.5,0.2-3.7,0.6c-0.6,0.2-0.9,0.8-0.7,1.3c0.2,0.6,0.8,0.9,1.3,0.7
		c1-0.3,2-0.5,3.1-0.5c5.8,0,10.4,4.6,10.4,10.3c0,3-1.3,5.9-3.7,7.8c-0.4,0.4-0.5,1-0.1,1.5c0.2,0.2,0.5,0.4,0.8,0.4
		c0.2,0,0.5-0.1,0.7-0.2c2.8-2.4,4.4-5.8,4.4-9.4C30,5.6,24.4,0,17.5,0L17.5,0z M17.5,0"/>
</g>
</svg>
