<?xml version="1.0" encoding="utf-8"?>
<!-- Generator: Adobe Illustrator 19.0.0, SVG Export Plug-In . SVG Version: 6.00 Build 0)  -->
<svg version="1.1" id="图层_1" xmlns="http://www.w3.org/2000/svg" xmlns:xlink="http://www.w3.org/1999/xlink" x="0px" y="0px"
	 viewBox="0 0 40 40" style="enable-background:new 0 0 40 40;" xml:space="preserve">
<style type="text/css">
	.st0{fill:#FFFFFF;}
</style>
<g id="XMLID_7_">
	<path id="XMLID_8_" class="st0" d="M22.8,12l-2.4,2.4l-2.2,2.2c-0.7,0.7-2.5,2.5-3,2.9c-0.4,0.5-0.7,0.7-0.8,0.9
		c-0.3,0.3-0.5,0.5-0.7,0.8c-0.2,0.2-0.3,0.5-0.4,0.8c-0.1,0.2-0.2,0.5-0.4,1c-0.2,0.5-0.3,1-0.5,1.6c-0.2,0.6-0.3,1.1-0.5,1.7
		c-0.2,0.5-0.3,0.9-0.3,1.2c-0.1,0.5,0,0.9,0.2,1.1c0.2,0.2,0.5,0.3,1.1,0.2c0.3,0,0.7-0.1,1.2-0.3c0.5-0.1,1.1-0.3,1.7-0.5
		c0.6-0.2,1.2-0.4,1.7-0.6c0.5-0.2,1-0.4,1.2-0.5c0.3-0.1,0.6-0.3,0.8-0.5c0.3-0.2,0.5-0.4,0.7-0.6c0.1-0.1,0.3-0.3,0.8-0.7
		c0.4-0.4,1-1,1.6-1.6c0.6-0.7,2.7-2.6,3.5-3.4l2.4-2.4l6.3-6.4l-5.7-5.5L22.8,12L22.8,12L22.8,12L22.8,12z M36.7,15.5v9v5.6v0v1.2
		c0,3.1-2.6,5.6-5.8,5.6h-7.1h0h-7.5l0,0H9.2c-3.2,0-5.8-2.5-5.8-5.6V30v0V15.5V9.8v0.1V8.8c0-3.1,2.6-5.6,5.8-5.6h7.1h4.3h2h1
		l4-3.2h-1.3v0H9.2C4.3,0,0.2,3.7,0,8.3h0v0.4v0.1l0,0v22.4v0.4h0C0.2,36.3,4.3,40,9.2,40h0.2h21.3h0.2c4.9,0,8.9-3.7,9.2-8.3h0
		v-0.4V12.4L36.7,15.5L36.7,15.5L36.7,15.5L36.7,15.5z M35.9,1.3c-0.2,0-0.4-0.1-0.6-0.1h0.1C35.5,1.2,35.7,1.2,35.9,1.3L35.9,1.3
		L35.9,1.3L35.9,1.3z M39.5,5.3c0-0.6-0.1-1.2-0.5-1.8c-0.2-0.4-0.5-0.8-0.9-1.1c-0.7-0.6-1.5-1-2.2-1.1c-0.2,0-0.4,0-0.5-0.1h-0.1
		c-0.3,0-0.7,0-1,0.2c-0.4,0.1-0.7,0.3-1.1,0.6c-0.3,0.2-0.6,0.5-1,0.9c-0.4,0.4-0.8,0.7-1.1,1l5.7,5.5c0.2-0.1,0.4-0.3,0.6-0.5
		c0.2-0.2,0.4-0.4,0.6-0.6c0.2-0.2,0.5-0.5,0.8-0.8c0.3-0.3,0.5-0.6,0.6-0.9c0.1-0.3,0.2-0.7,0.2-1C39.5,5.5,39.5,5.4,39.5,5.3
		L39.5,5.3L39.5,5.3L39.5,5.3z M39.5,5.3"/>
</g>
</svg>
