<?xml version="1.0" encoding="utf-8"?>
<!-- Generator: Adobe Illustrator 19.0.0, SVG Export Plug-In . SVG Version: 6.00 Build 0)  -->
<svg version="1.1" id="图层_1" xmlns="http://www.w3.org/2000/svg" xmlns:xlink="http://www.w3.org/1999/xlink" x="0px" y="0px"
	 viewBox="0 0 12 20" style="enable-background:new 0 0 12 20;" xml:space="preserve">
<style type="text/css">
	.st0{fill:#959DA6;}
</style>
<g id="XMLID_6_">
	<path id="XMLID_7_" class="st0" d="M11.8,14.6l-5.1,5.1c-0.1,0.1-0.2,0.2-0.3,0.3c0,0,0,0,0,0C6.2,20,6.1,20,6,20c0,0,0,0,0,0
		c0,0,0,0-0.1,0c-0.1,0-0.1,0-0.2,0c-0.1,0-0.1,0-0.2-0.1c0,0-0.1,0-0.1-0.1c0,0-0.1,0-0.1-0.1l-5.1-5.1c-0.3-0.3-0.3-0.9,0-1.2
		c0.3-0.3,0.9-0.3,1.2,0l3.7,3.7V8.9C5.2,8.4,5.5,8,6,8c0.5,0,0.9,0.4,0.9,0.9v8.2l3.7-3.7c0.3-0.3,0.9-0.3,1.2,0
		C12.1,13.7,12.1,14.3,11.8,14.6L11.8,14.6z M6,5.7c-0.5,0-0.9-0.4-0.9-0.9C5.2,4.4,5.5,4,6,4c0.5,0,0.9,0.4,0.9,0.9
		C6.9,5.3,6.5,5.7,6,5.7L6,5.7z M6,1.7c-0.5,0-0.9-0.4-0.9-0.9C5.2,0.4,5.5,0,6,0c0.5,0,0.9,0.4,0.9,0.9C6.9,1.3,6.5,1.7,6,1.7
		L6,1.7z M6,1.7"/>
</g>
</svg>
