<?xml version="1.0" encoding="utf-8"?>
<!-- Generator: Adobe Illustrator 19.0.0, SVG Export Plug-In . SVG Version: 6.00 Build 0)  -->
<svg version="1.1" id="图层_1" xmlns="http://www.w3.org/2000/svg" xmlns:xlink="http://www.w3.org/1999/xlink" x="0px" y="0px"
	 viewBox="0 0 24 20" style="enable-background:new 0 0 24 20;" xml:space="preserve">
<style type="text/css">
	.st0{fill:#FFFFFF;}
</style>
<g id="XMLID_6_">
	<path id="XMLID_10_" class="st0" d="M5.5,11.2v3.3c0,0,2.9,3.1,6.9,3.1c5.1,0,6.9-3.1,6.9-3.1V11l-6,3.4c-0.4,0.2-1,0.3-1.4,0
		L5.5,11.2L5.5,11.2z M5.5,11.2"/>
	<path id="XMLID_7_" class="st0" d="M12.5,7.3c-0.7,0-1.5-0.2-1.9-0.5L3.5,9.3l8.5,4.2c0.4,0.2,1,0.2,1.4,0l9.9-5.7
		C23.7,7.5,24,7,24,6.4c0-0.5-0.3-1-0.8-1.2l-10.3-5c-0.4-0.2-1-0.2-1.4,0L1.6,5.9C1.1,6.1,0.9,6.6,0.9,7.2c0,0.5,0.3,1,0.8,1.2
		l0,5.2c-0.5,0.2-0.9,0.7-0.9,1.2c0,0.4,0.2,0.8,0.5,1c-0.1,0.7-0.4,1.2-0.8,1.6C0.1,17.7,0,18.1,0,18.5c0,0.4,0.3,0.8,0.6,1.1
		l0.2,0.1C1.1,20,1.6,20.1,2,20c0.4-0.1,0.8-0.3,1-0.7C3.6,18,3.3,16.4,3,15.7c0.2-0.2,0.4-0.6,0.4-0.9c0-0.6-0.4-1-0.9-1.2l0-4.9
		L10.4,6c0.1-0.3,0.4-0.6,0.4-0.6c0,0.1,0,1.2,1.7,1.2c0.9,0,1.7-0.3,1.7-0.9c0-0.1,0-0.2-0.1-0.4c0.3,0.3,0.4,0.7,0.4,1
		C14.5,6.9,13.6,7.3,12.5,7.3L12.5,7.3z M12.5,7.3"/>
</g>
</svg>
