<?xml version="1.0" encoding="utf-8"?>
<!-- Generator: Adobe Illustrator 19.0.0, SVG Export Plug-In . SVG Version: 6.00 Build 0)  -->
<svg version="1.1" id="图层_1" xmlns="http://www.w3.org/2000/svg" xmlns:xlink="http://www.w3.org/1999/xlink" x="0px" y="0px"
	 viewBox="0 0 25 22" style="enable-background:new 0 0 25 22;" xml:space="preserve">
<style type="text/css">
	.st0{fill:#5394D0;}
</style>
<g id="XMLID_10_">
	<path id="XMLID_17_" class="st0" d="M25,4.9c0,0.1,0,0.2-0.1,0.3c-0.2,0.9-0.8,1.5-1.7,1.7c-0.6,0.2-1.3,0.3-1.9,0.4
		c-0.1,0-0.2,0.1-0.2,0.2c0,2.1,0,4.2,0,6.3c0,1-0.4,1.8-1.2,2.4c-0.7,0.5-1.4,0.8-2.2,1.1c-1,0.3-1.9,0.4-2.9,0.5
		c-1.1,0.1-2.3,0.1-3.4,0.1C9.9,18,8.4,17.8,7,17.4c-0.8-0.3-1.5-0.6-2.1-1.1c-0.7-0.6-1-1.3-1-2.2c0-2.1,0-4.2,0-6.3
		c0-0.1,0-0.2-0.2-0.2C3.1,7.3,2.5,7.2,1.8,7C0.9,6.8,0.2,6,0,5c0,0,0,0,0-0.1V4.5c0,0,0,0,0-0.1c0.1-1,0.8-1.7,1.8-2
		c3-0.7,6-1.4,9-2.1c0.5-0.1,1-0.2,1.5-0.3h0.4c0.1,0,0.2,0,0.3,0.1c3.4,0.8,6.7,1.6,10.1,2.3c0.9,0.2,1.5,0.8,1.8,1.8
		c0,0.1,0,0.2,0.1,0.3V4.9L25,4.9z M19.5,7.9c-0.1,0-0.1,0-0.1,0c-2,0.5-4.1,0.9-6.1,1.4c-0.4,0.1-0.9,0.2-1.3,0.1
		C10,8.9,8,8.4,5.9,8c-0.1,0-0.3-0.1-0.5-0.1V8c0,2,0,3.9,0,5.9c0,0.4,0.1,0.7,0.4,0.9C6,14.9,6.1,15,6.2,15.1
		c0.5,0.4,1.1,0.6,1.8,0.8c1.1,0.3,2.2,0.5,3.3,0.6c1.6,0.1,3.2,0,4.8-0.3c0.9-0.2,1.7-0.4,2.5-0.9c0.3-0.2,0.6-0.4,0.8-0.7
		c0.1-0.2,0.2-0.4,0.2-0.6c0-2,0-4,0-6C19.5,8,19.5,7.9,19.5,7.9L19.5,7.9z M12.5,7.9c0.1,0,0.2,0,0.2,0c2.6-0.6,5.2-1.2,7.8-1.8
		l2.3-0.5c0.3-0.1,0.5-0.3,0.6-0.6c0.1-0.5-0.2-0.9-0.7-1c-3.3-0.8-6.7-1.5-10-2.3c-0.2,0-0.3,0-0.5,0c-1.4,0.3-2.7,0.6-4.1,1
		C6.2,3,4.2,3.5,2.2,3.9C1.8,4,1.6,4.3,1.6,4.7c0,0.4,0.3,0.7,0.7,0.8l9.4,2.2C11.9,7.8,12.2,7.8,12.5,7.9L12.5,7.9z M12.5,7.9"/>
	<path id="XMLID_14_" class="st0" d="M23.3,22c-0.1,0-0.2,0-0.3-0.1c-0.7-0.2-1.2-0.9-1.1-1.7c0.1-0.7,0.3-1.5,0.7-2.1
		c0.1-0.2,0.3-0.4,0.5-0.6c0.3-0.3,0.6-0.3,0.9,0c0.2,0.2,0.4,0.4,0.5,0.7c0.3,0.6,0.5,1.3,0.6,1.9c0,0,0,0.1,0,0.1v0.4
		c0,0,0,0.1,0,0.1c-0.1,0.6-0.5,1-1.1,1.2c-0.1,0-0.2,0-0.2,0.1C23.5,22,23.4,22,23.3,22L23.3,22z M23.3,22"/>
	<path id="XMLID_11_" class="st0" d="M22.7,12.2V8.7c0-0.4,0.3-0.8,0.7-0.8c0.4-0.1,0.8,0.3,0.9,0.7v0.1v7c0,0.6-0.5,1-1,0.8
		c-0.3-0.1-0.5-0.4-0.5-0.8V12.2L22.7,12.2z M22.7,12.2"/>
</g>
</svg>
