<?xml version="1.0" encoding="utf-8"?>
<!-- Generator: Adobe Illustrator 19.0.0, SVG Export Plug-In . SVG Version: 6.00 Build 0)  -->
<svg version="1.1" id="图层_1" xmlns="http://www.w3.org/2000/svg" xmlns:xlink="http://www.w3.org/1999/xlink" x="0px" y="0px"
	 viewBox="0 0 15 15" style="enable-background:new 0 0 15 15;" xml:space="preserve">
<style type="text/css">
	.st0{fill:#6B7484;}
</style>
<g id="XMLID_11_">
	<path id="XMLID_22_" class="st0" d="M7.2,15c0,0-2-1.3-2.8-2.2C2.4,10.6,1,8,0.3,5C0.1,4.2,0,3.5,0,2.7c0-0.6,0.3-0.9,0.8-1
		C1.6,1.4,2.3,1.2,3.1,1C3.6,0.8,4,1,4.2,1.5c0.3,0.7,0.7,1.5,1,2.2c0.2,0.5,0.1,0.8-0.4,1.1C4.4,5.1,3.9,5.3,3.5,5.5
		C3.2,5.7,3.1,5.9,3.1,6.1c0,0.5,0.1,1,0.3,1.5c0.3,0.9,0.8,1.7,1.5,2.4c0.1,0.1,0.3,0.2,0.4,0.3c0.3,0.2,0.6,0.2,0.9,0
		C6.6,10.2,7,10,7.4,9.8C7.9,9.5,8.3,9.6,8.6,10c0.5,0.7,1,1.4,1.5,2c0.3,0.4,0.2,0.8-0.1,1.1c-0.6,0.5-1.3,1-1.9,1.6
		C7.9,14.9,7.6,15,7.6,15s-0.1,0-0.2,0C7.3,15,7.2,15,7.2,15L7.2,15z M7.2,15"/>
	<path id="XMLID_19_" class="st0" d="M14.9,7.1c-0.4,1.9-1.6,3.3-3.4,4.2c-0.2,0.1-0.4,0.1-0.6,0c-0.3-0.3-0.2-0.7,0.2-0.9
		c0.4-0.2,0.7-0.4,1-0.6c2.9-2.3,2.3-6.6-1-8.2C9.4,0.8,7.7,0.8,6,1.6C5.6,1.8,5.3,1.7,5.1,1.4C5,1.1,5.1,0.9,5.6,0.6
		c0.6-0.3,1.3-0.5,2-0.6c0,0,0.1,0,0.2,0C8,0,8.7,0,9.1,0c0.3,0,0.7,0.1,0.9,0.2c2.4,0.7,4.1,2.1,4.8,4.6C14.9,5,15,5.7,15,6
		C15,6.5,14.9,7,14.9,7.1L14.9,7.1z M14.9,7.1"/>
	<path id="XMLID_16_" class="st0" d="M7.1,7.7c0.4,0,0.7,0,1.1,0c0.2,0,0.4,0.1,0.5,0.3c0.1,0.2-0.1,0.4-0.3,0.5c-0.7,0-1.4,0-2.1,0
		C6,8.4,5.9,8.4,5.8,8.2c-0.1-0.2,0-0.3,0.1-0.5C6.3,7.4,6.7,7,7.1,6.6c0.1-0.2,0.3-0.3,0.4-0.5C7.5,6,7.6,5.9,7.6,5.8
		c0.1-0.2,0-0.5-0.2-0.6c-0.2-0.1-0.4,0-0.6,0.2C6.7,5.5,6.7,5.7,6.6,5.8C6.5,6.1,6.3,6.1,6.1,6C5.9,6,5.8,5.8,5.8,5.6
		c0.1-1,1.5-1.5,2.3-0.8C8.5,5,8.7,5.5,8.5,6C8.3,6.4,8,6.7,7.7,7.1C7.5,7.3,7.4,7.5,7.1,7.7L7.1,7.7z M7.1,7.7"/>
	<path id="XMLID_12_" class="st0" d="M11.8,5.9c0,0.3,0,0.5,0,0.8c0,0.1,0,0.2,0.1,0.2c0.2,0,0.4,0.1,0.4,0.4c0,0.2-0.1,0.3-0.4,0.4
		c-0.1,0-0.2,0.1-0.1,0.2c0,0.1,0,0.2,0,0.3c0,0.3-0.1,0.4-0.4,0.4c-0.3,0-0.4-0.1-0.4-0.4c0-0.4,0-0.4-0.5-0.4c-0.3,0-0.7,0-1,0
		c-0.2,0-0.3,0-0.4-0.2C9,7.2,9,7.1,9.1,7c0.4-0.7,0.9-1.5,1.3-2.2c0.2-0.3,0.5-0.4,0.9-0.3c0.3,0.1,0.5,0.3,0.5,0.7
		C11.8,5.4,11.8,5.6,11.8,5.9L11.8,5.9z M10.1,6.8c0.3,0,0.5,0,0.7,0c0.1,0,0.2,0,0.2-0.1c0-0.5,0-0.9,0-1.4c0,0,0,0,0,0
		C10.6,5.8,10.4,6.3,10.1,6.8L10.1,6.8z M10.1,6.8"/>
</g>
</svg>
