<?xml version="1.0" encoding="utf-8"?>
<!-- Generator: Adobe Illustrator 19.0.0, SVG Export Plug-In . SVG Version: 6.00 Build 0)  -->
<svg version="1.1" id="图层_1" xmlns="http://www.w3.org/2000/svg" xmlns:xlink="http://www.w3.org/1999/xlink" x="0px" y="0px"
	 viewBox="0 0 163 42" style="enable-background:new 0 0 163 42;" xml:space="preserve">
<style type="text/css">
	.st0{fill:#323943;}
	.st1{fill:#323A45;}
</style>
<g id="XMLID_7_">
	<path id="XMLID_11_" class="st0" d="M19.6,1.3C8.8,1.3,0,10.2,0,20.9s8.8,19.6,19.6,19.6s19.7-8.8,19.7-19.6S30.5,1.3,19.6,1.3z
		 M19.6,39c-10,0-18.1-8.1-18.1-18.1S9.6,2.8,19.6,2.8s18.2,8.1,18.2,18.1S29.6,39,19.6,39z"/>
	<circle id="XMLID_3_" class="st0" cx="42.7" cy="37.2" r="3.5"/>
	<g id="XMLID_1_">
		<path id="XMLID_28_" class="st1" d="M56.7,12.6V6.1h1.9c1,0,1.8,0.3,2.5,0.9c0.7,0.6,1,1.3,1,2.3s-0.3,1.8-1,2.4s-1.5,0.9-2.5,0.9
			C58.6,12.5,56.7,12.5,56.7,12.6z M57.6,6.8v5h0.9c0.8,0,1.5-0.2,1.9-0.7c0.5-0.5,0.7-1.1,0.7-1.9s-0.2-1.4-0.7-1.8
			s-1.1-0.6-1.9-0.6H57.6z"/>
		<path id="XMLID_31_" class="st1" d="M66.8,12.6h-3.5V6.1h3.4v0.7h-2.5v2.1h2.3v0.7h-2.3v2.2h2.7L66.8,12.6L66.8,12.6z"/>
		<path id="XMLID_33_" class="st1" d="M72.5,12.3c-0.5,0.3-1.1,0.4-1.8,0.4c-0.9,0-1.7-0.3-2.2-0.9c-0.6-0.6-0.8-1.4-0.8-2.4
			s0.3-1.9,0.9-2.5s1.4-1,2.4-1c0.6,0,1.1,0.1,1.5,0.3v0.9c-0.5-0.3-1-0.4-1.5-0.4c-0.7,0-1.3,0.2-1.8,0.7s-0.7,1.1-0.7,2
			c0,0.8,0.2,1.4,0.6,1.9s1,0.7,1.7,0.7c0.6,0,1.2-0.1,1.7-0.4C72.5,11.7,72.5,12.3,72.5,12.3z"/>
		<path id="XMLID_35_" class="st1" d="M77.3,12.6h-3.5V6.1h3.4v0.7h-2.5v2.1H77v0.7h-2.3v2.2h2.7L77.3,12.6L77.3,12.6z"/>
		<path id="XMLID_37_" class="st1" d="M83.8,12.6h-1l-3.3-5.1c-0.1-0.1-0.2-0.3-0.2-0.4l0,0c0,0.1,0,0.5,0,0.9v4.6h-0.8V6.1h1.1
			l3.2,5c0.2,0.2,0.2,0.4,0.3,0.5l0,0c0-0.2,0-0.5,0-1V6.1h0.8L83.8,12.6L83.8,12.6z"/>
		<path id="XMLID_39_" class="st1" d="M89.5,6.8h-1.9v5.8h-0.8V6.9h-1.9V6.2h4.6C89.5,6.2,89.5,6.8,89.5,6.8z"/>
		<path id="XMLID_41_" class="st1" d="M95.2,12.6h-1l-1.1-1.8c-0.2-0.4-0.4-0.6-0.6-0.7s-0.4-0.2-0.6-0.2h-0.6v2.7h-0.8V6.1h2
			c0.6,0,1.1,0.2,1.5,0.5s0.5,0.7,0.5,1.3c0,0.9-0.5,1.5-1.4,1.8l0,0c0.2,0.1,0.3,0.2,0.5,0.3c0.1,0.1,0.3,0.4,0.5,0.7L95.2,12.6z
			 M91.3,6.8v2.3h1c0.4,0,0.7-0.1,0.9-0.3c0.2-0.2,0.4-0.5,0.4-0.9c0-0.3-0.1-0.6-0.3-0.8c-0.2-0.2-0.5-0.3-1-0.3
			C92.3,6.8,91.3,6.8,91.3,6.8z"/>
		<path id="XMLID_44_" class="st1" d="M101.2,12.6h-0.9l-0.7-1.8h-2.7l-0.6,1.8h-0.9l2.5-6.5h0.9L101.2,12.6z M99.4,10.1l-1-2.7
			c0-0.1-0.1-0.2-0.1-0.5l0,0c0,0.2-0.1,0.3-0.1,0.5l-1,2.7H99.4z"/>
		<path id="XMLID_47_" class="st1" d="M108.6,6.8h-1.9v5.8h-0.8V6.9H104V6.2h4.6V6.8z"/>
		<path id="XMLID_49_" class="st1" d="M113.1,12.6h-3.5V6.1h3.4v0.7h-2.5v2.1h2.3v0.7h-2.3v2.2h2.7L113.1,12.6L113.1,12.6z"/>
		<path id="XMLID_51_" class="st1" d="M118.8,12.3c-0.5,0.3-1.1,0.4-1.8,0.4c-0.9,0-1.7-0.3-2.2-0.9c-0.6-0.6-0.8-1.4-0.8-2.4
			s0.3-1.9,0.9-2.5c0.6-0.6,1.4-1,2.4-1c0.6,0,1.1,0.1,1.5,0.3v0.9c-0.5-0.3-1-0.4-1.5-0.4c-0.7,0-1.3,0.2-1.8,0.7s-0.7,1.1-0.7,2
			c0,0.8,0.2,1.4,0.6,1.9c0.4,0.5,1,0.7,1.7,0.7c0.6,0,1.2-0.1,1.7-0.4L118.8,12.3L118.8,12.3z"/>
		<path id="XMLID_53_" class="st1" d="M125.1,12.6h-0.8V9.7H121v2.9h-0.8V6.1h0.8v2.8h3.3V6h0.8V12.6z"/>
		<path id="XMLID_55_" class="st1" d="M132.1,12.6h-1l-3.3-5.1c-0.1-0.1-0.2-0.3-0.2-0.4l0,0c0,0.1,0,0.5,0,0.9v4.6h-0.8V6.1h1.1
			l3.2,5c0.2,0.2,0.2,0.4,0.3,0.5l0,0c0-0.2,0-0.5,0-1V6.1h0.8v6.5H132.1z"/>
		<path id="XMLID_57_" class="st1" d="M133.4,9.3c0-1.1,0.3-1.9,0.9-2.5c0.6-0.6,1.3-0.9,2.3-0.9c0.9,0,1.6,0.3,2.2,0.9
			c0.6,0.6,0.8,1.4,0.8,2.4c0,1.1-0.3,1.9-0.8,2.5s-1.3,0.9-2.3,0.9c-0.9,0-1.7-0.3-2.2-0.9C133.7,11.2,133.4,10.3,133.4,9.3z
			 M134.3,9.3c0,0.8,0.2,1.4,0.6,1.9c0.4,0.5,0.9,0.7,1.6,0.7c0.7,0,1.2-0.2,1.6-0.7c0.4-0.5,0.6-1.1,0.6-1.9s-0.2-1.5-0.6-1.9
			c-0.4-0.5-0.9-0.7-1.6-0.7c-0.7,0-1.2,0.2-1.6,0.7S134.3,8.6,134.3,9.3z"/>
		<path id="XMLID_60_" class="st1" d="M144.3,12.6h-3.4V6.1h0.8v5.8h2.6L144.3,12.6L144.3,12.6z"/>
		<path id="XMLID_62_" class="st1" d="M144.8,9.3c0-1.1,0.3-1.9,0.9-2.5c0.6-0.6,1.3-0.9,2.3-0.9c0.9,0,1.6,0.3,2.2,0.9
			c0.6,0.6,0.8,1.4,0.8,2.4c0,1.1-0.3,1.9-0.8,2.5s-1.3,0.9-2.3,0.9c-0.9,0-1.7-0.3-2.2-0.9C145.1,11.2,144.8,10.3,144.8,9.3z
			 M145.7,9.3c0,0.8,0.2,1.4,0.6,1.9c0.4,0.5,0.9,0.7,1.6,0.7c0.7,0,1.2-0.2,1.6-0.7c0.4-0.5,0.6-1.1,0.6-1.9s-0.2-1.5-0.6-1.9
			c-0.4-0.5-0.9-0.7-1.6-0.7c-0.7,0-1.2,0.2-1.6,0.7S145.7,8.6,145.7,9.3z"/>
		<path id="XMLID_65_" class="st1" d="M157.2,12.2c-0.7,0.4-1.4,0.6-2.2,0.6c-0.9,0-1.7-0.3-2.3-0.9s-0.9-1.4-0.9-2.4s0.3-1.8,1-2.5
			c0.6-0.6,1.5-1,2.4-1c0.7,0,1.3,0.1,1.8,0.3v0.9c-0.5-0.3-1.1-0.5-1.9-0.5c-0.7,0-1.3,0.2-1.8,0.7c-0.5,0.5-0.7,1.1-0.7,1.9
			s0.2,1.5,0.6,1.9c0.4,0.5,1,0.7,1.7,0.7c0.5,0,0.9-0.1,1.3-0.3V9.8h-1.4V9.1h2.3L157.2,12.2L157.2,12.2z"/>
		<path id="XMLID_67_" class="st1" d="M163,6.1l-2.1,4.1v2.4h-0.8v-2.4L158,6.1h1l1.4,2.9c0,0,0.1,0.1,0.2,0.4l0,0
			c0-0.1,0.1-0.3,0.2-0.4l1.5-2.9H163z"/>
	</g>
	<g id="XMLID_6_">
		<path id="XMLID_8_" class="st1" d="M64.6,26.5l0.8,0.8c-1.8,1.4-3.5,2.6-5.1,3.5c-0.3-0.4-0.6-0.7-0.8-0.9
			C61.3,28.9,63,27.9,64.6,26.5z M60,35h5.8v-3.7h-4.4v-1.1h10v1.1H67V35h5.8v1.1H60V35z M60,24.7h6.1c-0.2-0.4-0.5-0.9-0.8-1.4
			l1-0.5c0.4,0.6,0.7,1.1,1,1.6l-0.5,0.3h5.9v2.7h-1.1v-1.7H61.2v1.7h-1.1L60,24.7L60,24.7z M68.2,26.5c2,1.2,3.7,2.3,5.1,3.3
			l-0.8,1c-1.4-1.1-3.1-2.3-5-3.5L68.2,26.5z"/>
		<path id="XMLID_14_" class="st1" d="M89.7,27.2l1.1,0.3c-0.4,2-0.9,3.9-1.5,5.8l-1.1-0.4C88.8,31.1,89.3,29.2,89.7,27.2z
			 M91.7,25.7h1.2V34c0,0.9,0.4,1.3,1.1,1.3h3c0.8,0,1.3-0.3,1.4-1c0.1-0.6,0.2-1.3,0.3-2.1c0.4,0.2,0.8,0.3,1.2,0.4
			c-0.1,1-0.3,1.7-0.4,2.2c-0.3,1-1,1.6-2.2,1.6h-3.5c-1.3,0-2-0.7-2-2.1L91.7,25.7L91.7,25.7z M94.8,22.8c0.9,1.5,1.6,2.8,2.3,4
			c-0.4,0.2-0.8,0.4-1.1,0.6c-0.7-1.4-1.4-2.8-2.1-4.1L94.8,22.8z M99.7,26.7c0.8,1.5,1.6,3.2,2.5,5.1l-1.2,0.6
			c-0.7-1.8-1.5-3.6-2.4-5.2L99.7,26.7z"/>
		<path id="XMLID_19_" class="st1" d="M116.8,33c1.1-1.4,1.9-3,2.4-4.8H117v-1h2.3v-2.1c-0.7,0.1-1.4,0.1-2,0.2
			c-0.1-0.3-0.2-0.7-0.3-1c1.8-0.1,3.6-0.3,5.4-0.6l0.4,1c-0.8,0.1-1.6,0.2-2.4,0.3v2.2h2.2v1h-2.2v1.6l0.6-0.6
			c0.7,0.6,1.3,1.1,1.9,1.7l-0.8,0.8c-0.6-0.7-1.2-1.3-1.7-1.8v6.9h-1.1v-6.3c-0.6,1.4-1.2,2.7-2,3.7C117.2,33.8,117,33.5,116.8,33z
			 M121.9,32.2l5.5-0.5V23h1.1v8.6l2.2-0.2l0.1,1l-2.3,0.2v4.2h-1.1v-4.1l-5.4,0.5L121.9,32.2z M122.7,28.6l0.7-0.7
			c1.1,0.8,1.9,1.5,2.4,2l-0.7,0.9C124.6,30.4,123.8,29.6,122.7,28.6z M123.5,25.2l0.6-0.7c1,0.8,1.9,1.5,2.5,2.1l-0.7,0.8
			C125.3,26.9,124.5,26,123.5,25.2z"/>
		<path id="XMLID_24_" class="st1" d="M145.5,30.4c0.7-0.2,1.4-0.4,2-0.6v-3h-1.9v-1h1.9v-2.7h1.1v2.7h1.6v1h-1.6v2.7
			c0.5-0.2,1.1-0.3,1.6-0.5c0,0.4,0,0.8,0,1.1c-0.5,0.2-1.1,0.3-1.6,0.5v4.5c0,1-0.5,1.5-1.4,1.5c-0.4,0-0.8,0-1.3,0
			c-0.1-0.4-0.1-0.8-0.2-1.2c0.6,0.1,1,0.1,1.2,0.1c0.4,0,0.6-0.2,0.6-0.6v-4c-0.6,0.2-1.3,0.4-1.9,0.6L145.5,30.4z M150.7,29.4
			v-0.9h3.6v-2.1h-3.7v-1h3.7v-2.3h1.1v2.3h3.8v1h-3.8v2.1h3v0.8c-0.7,1.9-1.6,3.4-2.8,4.5c1.1,0.8,2.4,1.5,3.9,1.9
			c-0.4,0.4-0.7,0.8-0.9,1.1c-1.5-0.6-2.8-1.4-3.9-2.2c-1.2,0.9-2.7,1.7-4.3,2.4c-0.2-0.3-0.4-0.6-0.7-1c1.7-0.5,3.1-1.2,4.3-2.1
			c-1-1.1-1.8-2.6-2.3-4.4L150.7,29.4L150.7,29.4z M157.2,29.4h-4.5c0.4,1.5,1.1,2.7,2.1,3.7C155.9,32,156.7,30.9,157.2,29.4z"/>
	</g>
</g>
</svg>
