<?xml version="1.0" encoding="utf-8"?>
<!-- Generator: Adobe Illustrator 19.0.0, SVG Export Plug-In . SVG Version: 6.00 Build 0)  -->
<svg version="1.1" id="图层_1" xmlns="http://www.w3.org/2000/svg" xmlns:xlink="http://www.w3.org/1999/xlink" x="0px" y="0px"
	 viewBox="0 0 42 35" style="enable-background:new 0 0 42 35;" xml:space="preserve">
<style type="text/css">
	.st0{fill:#FFFFFF;}
</style>
<g id="XMLID_8_">
	<path id="XMLID_15_" class="st0" d="M40.3,8.4H1.7C0.8,8.4,0,7.6,0,6.7v-5C0,0.8,0.8,0,1.7,0h38.6C41.2,0,42,0.8,42,1.7v5
		C42,7.6,41.2,8.4,40.3,8.4L40.3,8.4z M40.3,8.4"/>
	<path id="XMLID_12_" class="st0" d="M40.3,21.1H1.7c-0.9,0-1.7-0.8-1.7-1.7v-5c0-0.9,0.8-1.7,1.7-1.7h38.6c0.9,0,1.7,0.8,1.7,1.7v5
		C42,20.4,41.2,21.1,40.3,21.1L40.3,21.1z M40.3,21.1"/>
	<path id="XMLID_9_" class="st0" d="M40.3,35H1.7C0.8,35,0,34.2,0,33.3v-5c0-0.9,0.8-1.7,1.7-1.7h38.6c0.9,0,1.7,0.8,1.7,1.7v5
		C42,34.2,41.2,35,40.3,35L40.3,35z M40.3,35"/>
</g>
</svg>
