<?xml version="1.0" encoding="utf-8"?>
<!-- Generator: Adobe Illustrator 19.0.0, SVG Export Plug-In . SVG Version: 6.00 Build 0)  -->
<svg version="1.1" id="图层_1" xmlns="http://www.w3.org/2000/svg" xmlns:xlink="http://www.w3.org/1999/xlink" x="0px" y="0px"
	 viewBox="0 0 35 35" style="enable-background:new 0 0 35 35;" xml:space="preserve">
<style type="text/css">
	.st0{fill:#BFBEBE;}
</style>
<g id="XMLID_10_">
	<path id="XMLID_15_" class="st0" d="M31.6,35L3.9,35C1.7,35,0,34.2,0,31.4V3.6C0,1.4,1.5,0,3.9,0h21.5c0,2.6,0,5.2,0,7.8
		c0,0.8,0.2,1,1,1c3,0,5.6,0,8.6,0V31C35,33.4,33.5,35,31.6,35L31.6,35z M2.1,10.8c0,0.2,0,13.4,0,19.4c0,2.1,0.9,2.7,2.5,2.7
		c8.2,0,16.8,0,25,0c2.3,0,3.3-0.4,3.3-3.1c0-0.9,0.3-1.5-0.7-1.5c-2.4,0.1-5.4,0-7.8,0c-2.8,0-4.5-1.7-4.5-4.4c0-1.3,0-2.7,0-4
		c0-2.7,1.7-4.3,4.4-4.4c1.9,0,6.2,0,8.1,0c0.8,0,0.5-0.4,0.5-3.7c0-0.8,0-1-1-1C24,10.8,3.9,10.8,2.1,10.8L2.1,10.8z M13.3,8.9
		c2.9,0,5.8,0,8.7,0c0.7,0,1.1-0.2,1.1-0.9c0-1.7,0.1-3.2,0-4.8c0-0.3-0.2-0.9-0.9-0.9c-6,0-11.9,0-17.8,0c-1.4,0-2.2,0.7-2.2,1.7
		c0,0.6,0,3,0,3.6c0,1.2,0.8,1.5,1.4,1.5C6.3,8.9,10.5,8.9,13.3,8.9L13.3,8.9z M27.9,26.4c1.3,0,2.7,0,4,0c0.8,0,1.1-0.4,1-1.2
		c0-2.3,0-4.6,0-6.9c0-0.7-0.2-1.1-1-1.1c-2.6,0-5.1,0-7.7,0c-1.5,0-2.4,1-2.5,2.6c0,1.3,0,2.7,0,4c0.1,1.5,0.9,2.5,2.4,2.5
		C25.4,26.5,26.6,26.4,27.9,26.4L27.9,26.4z M27.9,26.4"/>
</g>
<path id="XMLID_16_" class="st0" d="M27.5,18.7c-1.7,0-3.2,1.4-3.2,3.2c0,1.7,1.4,3.2,3.2,3.2s3.2-1.4,3.2-3.2
	C30.6,20.1,29.2,18.7,27.5,18.7z M27.5,22.9c-0.6,0-1.1-0.5-1.1-1.1c0-0.6,0.5-1.1,1.1-1.1s1.1,0.5,1.1,1.1
	C28.6,22.4,28.1,22.9,27.5,22.9z"/>
</svg>
