<?xml version="1.0" encoding="utf-8"?>
<!-- Generator: Adobe Illustrator 19.0.0, SVG Export Plug-In . SVG Version: 6.00 Build 0)  -->
<svg version="1.1" id="图层_1" xmlns="http://www.w3.org/2000/svg" xmlns:xlink="http://www.w3.org/1999/xlink" x="0px" y="0px"
	 viewBox="0 0 35 35" style="enable-background:new 0 0 35 35;" xml:space="preserve">
<style type="text/css">
	.st0{fill:#BFBEBE;}
</style>
<g id="XMLID_10_">
	<path id="XMLID_17_" class="st0" d="M2.4,10.9V1.4C2.4,0.7,3,0,3.7,0h0h10c0.4,0,0.8,0.2,1.1,0.5l4.2,5.8h12.1
		c0.7,0,1.4,0.3,1.4,1.1v0v3.5h1c0.7,0,1.4,0.7,1.4,1.5c0,0.1,0,0.2,0,0.2l-2.2,20.9c0,0.4-0.3,0.8-0.6,1C32,34.8,31.6,35,31.3,35
		H3.7c-0.5,0-1.4-0.6-1.5-1.5L0,12.6c-0.1-0.8,0.4-1.5,1.2-1.6H2.4z M4.4,10.9h26.3V8.3l-12,0l0,0c-0.4,0-0.7,0-1-0.2l-4.3-5.9H4.4
		V10.9 M32.9,13.1L32.9,13.1H2.3l2.1,19.9h26.5L32.9,13.1L32.9,13.1L32.9,13.1L32.9,13.1z M32.9,13.1"/>
</g>
</svg>
