<?xml version="1.0" encoding="utf-8"?>
<!-- Generator: Adobe Illustrator 19.0.0, SVG Export Plug-In . SVG Version: 6.00 Build 0)  -->
<svg version="1.1" id="图层_1" xmlns="http://www.w3.org/2000/svg" xmlns:xlink="http://www.w3.org/1999/xlink" x="0px" y="0px"
	 viewBox="2 -3 40 40" style="enable-background:new 2 -3 40 40;" xml:space="preserve">
<style type="text/css">
	.st0{fill:#FFFFFF;}
</style>
<g id="XMLID_7_">
	<path id="XMLID_8_" class="st0" d="M38.6,12.5v15.8c0,3.1-2.6,5.6-5.8,5.6H11.2c-3.2,0-5.8-2.5-5.8-5.6V12.5V5.8
		c0-3.1,2.6-5.6,5.8-5.6h14.4l4-3.2H11.2C6.3-3,2.2,0.7,2,5.3l0,0v23.3l0,0c0.2,4.7,4.3,8.4,9.2,8.4h21.6c4.9,0,8.9-3.7,9.2-8.3l0,0
		V9.4L38.6,12.5L38.6,12.5L38.6,12.5L38.6,12.5z"/>
</g>
<path class="st0" d="M17,16.3c-0.3,0.3-0.4,0.5-0.6,0.8c-0.2,0.4-2.2,6-2.3,6.4c-0.1,0.5-0.1,0.8,0.1,1s0.6,0.4,1.1,0.3
	c0.3,0,6-2.1,6.4-2.3c0.3-0.2,0.6-0.4,0.8-0.6C22.7,21.8,37.5,7,37.5,7l-5.6-5.6C31.9,1.4,17.1,16.1,17,16.3z"/>
<path class="st0" d="M40.5-1.7c-2.7-2.6-4.8-0.6-5.2-0.2s-1.7,1.7-2,2l5.6,5.6c0.2-0.2,1.7-1.7,2-2C42.9,1.6,41.9-0.3,40.5-1.7z"/>
</svg>
