<?xml version="1.0" encoding="utf-8"?>
<!-- Generator: Adobe Illustrator 19.0.0, SVG Export Plug-In . SVG Version: 6.00 Build 0)  -->
<svg version="1.1" id="图层_1" xmlns="http://www.w3.org/2000/svg" xmlns:xlink="http://www.w3.org/1999/xlink" x="0px" y="0px"
	 viewBox="0 0 20 20" style="enable-background:new 0 0 20 20;" xml:space="preserve">
<style type="text/css">
	.st0{fill:#040000;}
</style>
<g id="XMLID_5_">
	<path id="XMLID_12_" class="st0" d="M16.1,0H3.9L0,3.2v4.9h20V3.2L16.1,0z M15.1,7.2c-0.4,0-0.7-0.3-0.7-0.7s0.3-0.7,0.7-0.7
		c0.4,0,0.7,0.3,0.7,0.7S15.5,7.2,15.1,7.2z M17.7,7.2c-0.4,0-0.7-0.3-0.7-0.7s0.3-0.7,0.7-0.7s0.7,0.3,0.7,0.7S18.1,7.2,17.7,7.2z"
		/>
	<path id="XMLID_26_" class="st0" d="M0,14.5h20V9.3H0V14.5z M17.7,11.3c0.4,0,0.7,0.3,0.7,0.7s-0.3,0.7-0.7,0.7s-0.7-0.3-0.7-0.7
		C16.9,11.6,17.3,11.3,17.7,11.3z M15.1,11.3c0.4,0,0.7,0.3,0.7,0.7s-0.3,0.7-0.7,0.7c-0.4,0-0.7-0.3-0.7-0.7S14.7,11.3,15.1,11.3z"
		/>
	<path id="XMLID_30_" class="st0" d="M0,20h20v-4.4H0V20z M17.7,17.1c0.4,0,0.7,0.3,0.7,0.7c0,0.4-0.3,0.7-0.7,0.7s-0.7-0.3-0.7-0.7
		C16.9,17.3,17.3,17.1,17.7,17.1z M15.1,17.1c0.4,0,0.7,0.3,0.7,0.7c0,0.4-0.3,0.7-0.7,0.7c-0.4,0-0.7-0.3-0.7-0.7
		C14.4,17.3,14.7,17.1,15.1,17.1z"/>
</g>
</svg>
