<?xml version="1.0" encoding="utf-8"?>
<!-- Generator: Adobe Illustrator 19.0.0, SVG Export Plug-In . SVG Version: 6.00 Build 0)  -->
<svg version="1.1" id="图层_1" xmlns="http://www.w3.org/2000/svg" xmlns:xlink="http://www.w3.org/1999/xlink" x="0px" y="0px"
	 viewBox="0 0 24 20" style="enable-background:new 0 0 24 20;" xml:space="preserve">
<style type="text/css">
	.st0{fill:#FFFFFF;}
</style>
<path id="XMLID_8_" class="st0" d="M21.4,3.2h-7.7V1.8C13.7,0.8,13,0,12,0s-1.7,0.8-1.7,1.8v1.4H2.6c-1.2,0-2.1,0.9-2.1,2.1v12.6
	c0,1.2,0.9,2.1,2.1,2.1h18.8c1.2,0,2.1-0.9,2.1-2.1V5.3C23.5,4.1,22.6,3.2,21.4,3.2z M12,1.1c0.4,0,0.7,0.3,0.7,0.7S12.4,2.5,12,2.5
	s-0.7-0.3-0.7-0.7C11.3,1.4,11.6,1.1,12,1.1z M7.5,6.1c1.6,0,2.9,1.3,2.9,2.9S9.1,12,7.5,12s-2.9-1.3-2.9-2.9S5.9,6.1,7.5,6.1z
	 M12,17.5H2.9v-1.3c0-1.8,1.4-3.3,3.2-3.3h2.6c1.8,0,3.2,1.5,3.2,3.3V17.5z M21.1,10.9h-6.6V9.8h6.6L21.1,10.9z M21.4,8.4h-8.7V7.4
	h8.7V8.4z"/>
</svg>
