<?xml version="1.0" encoding="utf-8"?>
<!-- Generator: Adobe Illustrator 19.0.0, SVG Export Plug-In . SVG Version: 6.00 Build 0)  -->
<svg version="1.1" id="图层_1" xmlns="http://www.w3.org/2000/svg" xmlns:xlink="http://www.w3.org/1999/xlink" x="0px" y="0px"
	 viewBox="0 0 40 40" style="enable-background:new 0 0 40 40;" xml:space="preserve">
<style type="text/css">
	.st0{fill:#FFFFFF;}
</style>
<g id="XMLID_9_">
	<path id="XMLID_10_" class="st0" d="M30.9,20.6H17.5c-1.1,0-2-0.9-2-2s0.9-2,2-2h13.4c1.1,0,2,0.9,2,2S32,20.6,30.9,20.6L30.9,20.6
		L30.9,20.6L30.9,20.6z M30.9,29.3H17.5c-1.1,0-2-0.9-2-2c0-1.1,0.9-2,2-2h13.4c1.1,0,2,0.9,2,2C32.9,28.4,32,29.3,30.9,29.3
		L30.9,29.3L30.9,29.3L30.9,29.3z M40,37V7.7C40,4.8,37.2,5,37.2,5S23.1,5,21.5,5c-1.3,0-1.4-0.5-1.4-0.5s-0.8-1.1-1.8-2.9
		c-1-1.7-2.7-1.6-2.7-1.6H3.4C0,0,0,3.3,0,3.3v33.6C0,40.4,2.7,40,2.7,40h34.7C40.4,40,40,37,40,37L40,37L40,37L40,37z M37.5,35.5
		c0,1.1-0.9,2-2,2h-31c-1.1,0-2-0.9-2-2V10.3c0-1.1,0.9-2,2-2h31c1.1,0,2,0.9,2,1.1v25.1V35.5L37.5,35.5z M8,18.6
		c0,1.2,0.9,2.1,2.1,2.1c1.2,0,2.1-0.9,2.1-2.1s-0.9-2.1-2.1-2.1C9,16.5,8,17.4,8,18.6L8,18.6L8,18.6z M8,27.3
		c0,1.2,0.9,2.1,2.1,2.1c1.2,0,2.1-0.9,2.1-2.1c0-1.2-0.9-2.1-2.1-2.1C9,25.2,8,26.2,8,27.3L8,27.3L8,27.3z M8,27.3"/>
</g>
</svg>
