<?xml version="1.0" encoding="utf-8"?>
<!-- Generator: Adobe Illustrator 19.0.0, SVG Export Plug-In . SVG Version: 6.00 Build 0)  -->
<svg version="1.1" id="图层_1" xmlns="http://www.w3.org/2000/svg" xmlns:xlink="http://www.w3.org/1999/xlink" x="0px" y="0px"
	 viewBox="0 0 22 15" style="enable-background:new 0 0 22 15;" xml:space="preserve">
<style type="text/css">
	.st0{fill:#FFFFFF;}
</style>
<g id="XMLID_6_">
	<path id="XMLID_7_" class="st0" d="M8,7.5c0-0.4,0.1-0.8,0.2-1.2c0.1-0.4,0.4-0.7,0.6-1c0.3-0.3,0.6-0.5,1-0.7
		c0.4-0.2,0.7-0.2,1.1-0.2c0.4,0,0.8,0.1,1.1,0.2c0.4,0.2,0.7,0.4,1,0.7c0.3,0.3,0.5,0.6,0.6,1C13.9,6.7,14,7.1,14,7.5
		c0,0.4-0.1,0.8-0.2,1.2c-0.1,0.4-0.4,0.7-0.6,1c-0.3,0.3-0.6,0.5-1,0.7c-0.4,0.2-0.7,0.2-1.1,0.2c-0.4,0-0.8-0.1-1.1-0.2
		c-0.4-0.2-0.7-0.4-1-0.7C8.6,9.4,8.4,9,8.3,8.7S8,7.9,8,7.5L8,7.5L8,7.5z M10.8,0C3.8,0,0,7.5,0,7.5S4.9,15,11.1,15
		C17.2,15,22,7.4,22,7.4S17.8,0,10.8,0L10.8,0L10.8,0z M11,13c-2.9,0-5.3-2.5-5.3-5.5C5.7,4.5,8.1,2,11,2c2.9,0,5.3,2.5,5.3,5.5
		C16.3,10.5,13.9,13,11,13L11,13L11,13z M11,13"/>
</g>
</svg>
