<?xml version="1.0" encoding="utf-8"?>
<!-- Generator: Adobe Illustrator 19.0.0, SVG Export Plug-In . SVG Version: 6.00 Build 0)  -->
<svg version="1.1" id="图层_1" xmlns="http://www.w3.org/2000/svg" xmlns:xlink="http://www.w3.org/1999/xlink" x="0px" y="0px"
	 viewBox="0 0 24 20" style="enable-background:new 0 0 24 20;" xml:space="preserve">
<style type="text/css">
	.st0{fill:#FFFFFF;}
</style>
<g id="XMLID_10_">
	<path id="XMLID_16_" class="st0" d="M16.2,6c0.3,0,0.5,0,0.8,0.1C16.3,2.6,12.7,0,8.5,0C3.8,0,0,3.3,0,7.4c0,2.4,1.3,4.3,3.4,5.9
		l-0.8,2.6l3-1.5c1.1,0.2,1.9,0.4,3,0.4c0.3,0,0.5,0,0.8,0C9.1,14.2,9,13.6,9,12.9C9,9.1,12.2,6,16.2,6L16.2,6z M11.7,3.7
		c0.6,0,1.1,0.4,1.1,1.1c0,0.7-0.4,1.1-1.1,1.1c-0.6,0-1.3-0.4-1.3-1.1C10.4,4.1,11,3.7,11.7,3.7L11.7,3.7z M5.7,5.9
		c-0.6,0-1.3-0.4-1.3-1.1c0-0.7,0.6-1.1,1.3-1.1c0.6,0,1.1,0.4,1.1,1.1C6.8,5.4,6.4,5.9,5.7,5.9L5.7,5.9z M5.7,5.9"/>
	<path id="XMLID_11_" class="st0" d="M24,12.8c0-3.5-3.4-6.3-7.2-6.3c-4,0-7.2,2.8-7.2,6.3c0,3.5,3.2,6.3,7.2,6.3
		c0.8,0,1.7-0.2,2.5-0.4l2.3,1.3L21,17.8C22.7,16.5,24,14.8,24,12.8L24,12.8z M14.4,11.7c-0.4,0-0.8-0.4-0.8-0.9
		c0-0.4,0.4-0.9,0.8-0.9c0.6,0,1.1,0.4,1.1,0.9C15.5,11.3,15.1,11.7,14.4,11.7L14.4,11.7z M19.1,11.7c-0.4,0-0.8-0.4-0.8-0.9
		c0-0.4,0.4-0.9,0.8-0.9c0.6,0,1.1,0.4,1.1,0.9C20.2,11.3,19.8,11.7,19.1,11.7L19.1,11.7z M19.1,11.7"/>
</g>
</svg>
