<?xml version="1.0" encoding="utf-8"?>
<!-- Generator: Adobe Illustrator 19.0.0, SVG Export Plug-In . SVG Version: 6.00 Build 0)  -->
<svg version="1.1" id="图层_1" xmlns="http://www.w3.org/2000/svg" xmlns:xlink="http://www.w3.org/1999/xlink" x="0px" y="0px"
	 viewBox="0 0 30 30" style="enable-background:new 0 0 30 30;" xml:space="preserve">
<style type="text/css">
	.st0{fill:#6EB32D;}
</style>
<path id="XMLID_7_" class="st0" d="M15.3,17.2c1.7-1.2,2.9-3,2.9-5.1c0-3.6-3.4-6.5-7.6-6.5s-7.6,2.9-7.6,6.5c0,2.1,1.2,4,3,5.2
	c-3.5,1.5-6,4.6-6,8.2C0,28.8,5.8,30,10.8,30s10.8-1.2,10.8-4.5C21.6,21.8,19,18.6,15.3,17.2z M10.6,7.9c2.8,0,5,1.9,5,4.2
	c0,2.3-2.2,4.2-5,4.2s-5-1.9-5-4.2C5.6,9.8,7.8,7.9,10.6,7.9z M10.8,27.7c-4.8,0-8.1-1.1-8.1-2.2c0-3.8,3.7-6.9,8.1-6.9
	s8.1,3.1,8.1,6.9C18.9,26.5,15.6,27.7,10.8,27.7z"/>
<path id="XMLID_1_" class="st0" d="M23.7,11.6c1.7-1.2,2.9-3,2.9-5.1C26.6,2.9,23.2,0,19,0c-2.3,0-4.4,0.9-5.9,2.4l2,1.5
	c1-1,2.4-1.6,3.9-1.6c2.8,0,4.7,1.9,4.7,4.2s-1.3,4.2-5.3,4.2v2.3c0,0,1.3,0,1.3,0v0c3.9,0,7.9,3.1,7.9,6.9c0,0.8-2.3,1.8-6,2.1
	l0.2,2.3c5.3-0.4,8.2-2,8.2-4.4C30,16.3,27.4,13.1,23.7,11.6z"/>
</svg>
