<?xml version="1.0" encoding="utf-8"?>
<!-- Generator: Adobe Illustrator 19.0.0, SVG Export Plug-In . SVG Version: 6.00 Build 0)  -->
<svg version="1.1" id="图层_1" xmlns="http://www.w3.org/2000/svg" xmlns:xlink="http://www.w3.org/1999/xlink" x="0px" y="0px"
	 viewBox="0 0 13 15" style="enable-background:new 0 0 13 15;" xml:space="preserve">
<style type="text/css">
	.st0{fill:#5394D0;stroke:#2B72BA;stroke-miterlimit:10;}
	.st1{fill:#272635;}
	.st2{fill:#FFFFFF;}
</style>
<path id="XMLID_4_" class="st0" d="M12.5,7.7c0,2.4-3.2,6.8-6,6.8c-2.8,0-6-4.3-6-6.8V2.6c2.8,0,4.5-0.8,6-2c1.5,1.2,3.2,2,6,2V7.7
	L12.5,7.7z"/>
<path id="XMLID_3_" class="st1" d="M13,7.8"/>
<path id="XMLID_6_" class="st2" d="M6.7,10.5L4.9,6C4.8,5.8,4.9,5.7,5,5.7c0.1,0,0.3-0.1,0.7-0.1h0.1V5H2.7v0.6h0.1
	c0.3,0,0.5,0,0.6,0.1c0.1,0,0.2,0.1,0.3,0.4l2.5,6.1l0,0.1h0.4l2.4-6.2c0.1-0.2,0.2-0.3,0.4-0.4c0.2-0.1,0.4-0.1,0.7-0.1h0.1h0V5
	H7.5v0.6h0.1c0.4,0,0.6,0,0.8,0.2C8.5,5.8,8.5,5.9,8.5,6L6.7,10.5L6.7,10.5z M6.7,10.5"/>
</svg>
