<?xml version="1.0" encoding="utf-8"?>
<!-- Generator: Adobe Illustrator 19.0.0, SVG Export Plug-In . SVG Version: 6.00 Build 0)  -->
<svg version="1.1" id="图层_1" xmlns="http://www.w3.org/2000/svg" xmlns:xlink="http://www.w3.org/1999/xlink" x="0px" y="0px"
	 viewBox="0 0 15 15" style="enable-background:new 0 0 15 15;" xml:space="preserve">
<style type="text/css">
	.st0{fill:#6C7686;}
</style>
<path id="XMLID_7_" class="st0" d="M11.6,14.5c0.3,0.3,0.7,0.5,1.1,0.5c0.4,0,0.8-0.2,1.1-0.5c0.6-0.6,0.6-1.6,0-2.2L9.5,7.9
	c0,0.1,0,0.3,0,0.4v0.2L9.4,8.7l-0.9,1L8.2,9.9L7.4,9L6.9,9.6L11.6,14.5L11.6,14.5L11.6,14.5z M5.5,1.3c-0.8-0.9-2-1.2-3.1-0.9
	l1.8,1.9L3.7,4.2L2,4.7L0.2,2.8C-0.1,3.9,0.2,5.1,1,6c0.9,0.9,2.1,1.2,3.2,0.8l0,0l1.5,1.6l0.5-0.5L5.7,7.3L5.4,7l1.3-1.4h0.2H7
	c0.1,0,0.2,0,0.3,0l-1-1c0,0,0,0-0.1-0.1C6.6,3.4,6.3,2.2,5.5,1.3L5.5,1.3L5.5,1.3z M12.6,0l-4,4.2c0.1,0.5-0.1,1-0.4,1.3
	C7.8,5.9,7.3,6.1,6.9,6L6,7l0.8,0.9l-4,4.2l-0.1-0.2l-0.8,0.6l-1.3,2.1L0.9,15l2-1.4l0.6-0.8l-0.1-0.2l4-4.2l0.8,0.9l0.9-1
	C9,7.8,9.2,7.3,9.5,7c0.3-0.4,0.8-0.5,1.3-0.5l4.1-4.2L12.6,0L12.6,0L12.6,0z M12.8,12.6l0.6,0.6L13.2,14l-0.7,0.2l-0.6-0.6l0.2-0.8
	L12.8,12.6L12.8,12.6L12.8,12.6z"/>
</svg>
