<?xml version="1.0" encoding="utf-8"?>
<!-- Generator: Adobe Illustrator 19.0.0, SVG Export Plug-In . SVG Version: 6.00 Build 0)  -->
<svg version="1.1" id="图层_1" xmlns="http://www.w3.org/2000/svg" xmlns:xlink="http://www.w3.org/1999/xlink" x="0px" y="0px"
	 viewBox="0 0 100 20" style="enable-background:new 0 0 100 20;" xml:space="preserve">
<style type="text/css">
	.st0{fill:#6C7686;}
	.st1{fill:#FFFFFF;}
	.st2{font-family:'FZLTXHK--GBK1-0';}
	.st3{font-size:14px;}
</style>
<path id="XMLID_15_" class="st0" d="M84,20H10C4.5,20,0,15.5,0,10l0,0C0,4.5,4.5,0,10,0h74c5.5,0,10,4.5,10,10l0,0
	C94,15.5,89.5,20,84,20z"/>
<text id="XMLID_10_" transform="matrix(1 0 0 1 25.9167 14.6836)" class="st1 st2 st3">PC安装包</text>
<g id="XMLID_4_">
	<path id="XMLID_6_" class="st1" d="M7.2,4.6v7.8h11.7V4.6H7.2z M18.1,11.5H8V5.4h10.1V11.5z"/>
	<polygon id="XMLID_3_" class="st1" points="7,12.8 18.9,12.8 20.5,15.4 5.5,15.4 	"/>
</g>
</svg>
