<?xml version="1.0" encoding="utf-8"?>
<!-- Generator: Adobe Illustrator 19.0.0, SVG Export Plug-In . SVG Version: 6.00 Build 0)  -->
<svg version="1.1" id="图层_1" xmlns="http://www.w3.org/2000/svg" xmlns:xlink="http://www.w3.org/1999/xlink" x="0px" y="0px"
	 viewBox="0 0 95 20" style="enable-background:new 0 0 95 20;" xml:space="preserve">
<style type="text/css">
	.st0{fill:#5394D0;}
	.st1{fill:#FFFFFF;}
	.st2{font-family:'MicrosoftYaHeiLight';}
	.st3{font-size:16px;}
</style>
<path id="XMLID_1_" class="st0" d="M92,20H3c-1.6,0-3-1.4-3-3V3c0-1.6,1.4-3,3-3h89c1.7,0,3,1.4,3,3v14C95,18.6,93.7,20,92,20z"/>
<text id="XMLID_2_" transform="matrix(1 0 0 0.9 25.375 15.3411)" class="st1 st2 st3">企业雇主</text>
<g id="XMLID_10_">
	<path id="XMLID_11_" class="st1" d="M6,16.6h0.3V9l3.7-1.3V5.6l6.5-3.1l1.8,1.2v12.9h0.7v0.9h-3.4V3.9l-4.7,2.2v1.2l1.9-0.7l0,0
		l0,0l1.8,1.1v8.7h0.7v0.9h-3.4V8L7.2,9.6v7.9H6V16.6L6,16.6L6,16.6z M7.7,17.4h1.6h1.9v-1.6c-0.7,0-1.3,0.1-1.9,0.1
		C8.7,16,8.2,16,7.7,16V17.4L7.7,17.4L7.7,17.4z M7.7,11.5c0.5-0.1,1-0.3,1.6-0.5c0.6-0.2,1.2-0.3,1.9-0.5V8.9
		c-0.7,0.2-1.3,0.4-1.9,0.7c-0.6,0.2-1.1,0.4-1.6,0.6V11.5L7.7,11.5L7.7,11.5z M7.7,13.4c0.5-0.1,1-0.2,1.6-0.3
		c0.6-0.1,1.2-0.2,1.9-0.4v-1.6c-0.7,0.2-1.3,0.3-1.9,0.5c-0.6,0.1-1.1,0.3-1.6,0.4V13.4L7.7,13.4L7.7,13.4z M7.7,15.4
		c0.5,0,1-0.1,1.6-0.2c0.6-0.1,1.2-0.1,1.9-0.2v-1.6c-0.7,0.1-1.3,0.2-1.9,0.3C8.7,13.9,8.2,14,7.7,14V15.4L7.7,15.4z M7.7,15.4"/>
</g>
</svg>
