<?xml version="1.0" encoding="utf-8"?>
<!-- Generator: Adobe Illustrator 19.0.0, SVG Export Plug-In . SVG Version: 6.00 Build 0)  -->
<svg version="1.1" id="图层_1" xmlns="http://www.w3.org/2000/svg" xmlns:xlink="http://www.w3.org/1999/xlink" x="0px" y="0px"
	 viewBox="0 0 95 20" style="enable-background:new 0 0 95 20;" xml:space="preserve">
<style type="text/css">
	.st0{fill:#5394D0;}
	.st1{fill:#FFFFFF;}
	.st2{font-family:'MicrosoftYaHeiLight';}
	.st3{font-size:16px;}
</style>
<path id="XMLID_1_" class="st0" d="M92,20H3c-1.6,0-3-1.4-3-3V3c0-1.6,1.4-3,3-3h89c1.7,0,3,1.4,3,3v14C95,18.6,93.7,20,92,20z"/>
<text id="XMLID_2_" transform="matrix(1 0 0 0.9 25.375 15.3411)" class="st1 st2 st3">个人雇主</text>
<path id="XMLID_15_" class="st1" d="M16.9,13.7c-0.1,0-0.1,0-0.2-0.1c-0.3-0.1-0.7-0.2-1-0.3l-1.3-0.6c0,0-0.4-0.5-0.5-0.8
	c-0.1-0.4,0.1-0.6,0.1-0.6l1.3-1.4c0,0,0.4-0.6,0.6-1c0.2-0.5,0.2-0.8,0.2-0.8S16,8,15.9,7.9c-0.1-0.1-0.3-0.1-0.3-0.1s0.4-1,0.2-2
	c0-0.2-0.5-1.2-1.1-1.9c-0.7-0.7-1.8-0.9-1.8-0.9l-2-0.7l0.3,0.9c0,0-1.4,0.3-2,1.8C8.6,6.4,8.9,6.7,8.9,7.1C9,7.5,9,7.7,9,7.7
	s-0.6,0-0.5,0.5c0.1,0.5,0.4,1.6,1.4,2.1c1,0.5,0.9,1.2,0.9,1.5c0,0.2-0.3,0.6-0.3,0.6s-0.4,0.6-1.7,1c-0.3,0.1-0.6,0.1-0.9,0.2
	c-0.3,0.1-0.4,0.1-0.5,0.2c-1.2,0.4-2.3,1-3.1,1.7v1c0,0.5,0.4,0.9,0.9,0.9h14.2c0.5,0,0.9-0.4,0.9-0.9h0v-0.8
	C19.5,14.9,18.3,14.2,16.9,13.7z M12.4,17l-1-1.4l1.1-3.2l1,3.3L12.4,17z"/>
</svg>
