<?xml version="1.0" encoding="utf-8"?>
<!-- Generator: Adobe Illustrator 16.0.0, SVG Export Plug-In . SVG Version: 6.00 Build 0)  -->
<!DOCTYPE svg PUBLIC "-//W3C//DTD SVG 1.1//EN" "http://www.w3.org/Graphics/SVG/1.1/DTD/svg11.dtd">
<svg version="1.1" id="图层_1" xmlns="http://www.w3.org/2000/svg" xmlns:xlink="http://www.w3.org/1999/xlink" x="0px" y="0px"
	 width="24px" height="17px" viewBox="0 0 24 17" enable-background="new 0 0 24 17" xml:space="preserve">
<g>
	<path fill-rule="evenodd" clip-rule="evenodd" fill="#FFFFFF" d="M23.598,9.357c-6.693,4.354-15.927,4.607-21.986,0.666
		C1.046,9.682,0.599,9.168,0.035,8.826c0,0,0,0,0,0c0.019,1.486,0.035,2.935,0.577,4.396c0,0.001-0.001,0.002,0,0.003
		c0.001,0.001,0.002-0.002,0.002-0.003c0.269,0.479,0.45,0.797,1.816,1.627c0,0,0,0.001-0.001,0.002
		c5.843,2.626,11.817,2.85,17.812,0.652C23.785,14.203,24.533,12.598,23.598,9.357z"/>
	<path fill-rule="evenodd" clip-rule="evenodd" fill="#FFFFFF" d="M21.316,2.079C15.16-0.724,8.818-0.646,2.61,2.034
		C0.528,2.932-0.249,4.286,0.356,6.649c0,0.001,0,0.001,0,0.002c0-0.001,0.001-0.001,0.003-0.002
		c0.636,0.85,0.904,1.064,1.816,1.482c0,0-0.001,0-0.002,0.001c6.347,2.491,12.764,2.802,19.049,0.028
		C24.77,6.597,24.811,3.671,21.316,2.079z"/>
</g>
</svg>
