<?xml version="1.0" encoding="utf-8"?>
<!-- Generator: Adobe Illustrator 19.0.0, SVG Export Plug-In . SVG Version: 6.00 Build 0)  -->
<svg version="1.1" id="图层_1" xmlns="http://www.w3.org/2000/svg" xmlns:xlink="http://www.w3.org/1999/xlink" x="0px" y="0px"
	 viewBox="0 0 15 15" style="enable-background:new 0 0 15 15;" xml:space="preserve">
<style type="text/css">
	.st0{fill:#FFFFFF;}
</style>
<g id="XMLID_4_">
	<path id="XMLID_5_" class="st0" d="M14.1,5.6H9.4V0.9C9.4,0.4,9,0,8.4,0H6.6C6,0,5.6,0.4,5.6,0.9v4.7H0.9C0.4,5.6,0,6,0,6.6v1.9
		C0,9,0.4,9.4,0.9,9.4h4.7v4.7C5.6,14.6,6,15,6.6,15h1.9c0.5,0,0.9-0.4,0.9-0.9V9.4h4.7C14.6,9.4,15,9,15,8.4V6.6
		C15,6,14.6,5.6,14.1,5.6L14.1,5.6z M14.1,5.6"/>
</g>
</svg>
