<?xml version="1.0" encoding="utf-8"?>
<!-- Generator: Adobe Illustrator 19.0.0, SVG Export Plug-In . SVG Version: 6.00 Build 0)  -->
<svg version="1.1" id="图层_1" xmlns="http://www.w3.org/2000/svg" xmlns:xlink="http://www.w3.org/1999/xlink" x="0px" y="0px"
	 viewBox="0 0 20 20" style="enable-background:new 0 0 20 20;" xml:space="preserve">
<style type="text/css">
	.st0{fill:#6B7484;}
</style>
<g id="XMLID_9_">
	<path id="XMLID_17_" class="st0" d="M17.1,7.3c0,1.1-0.4,2.1-0.8,3.1c-0.7,1.5-1.7,2.7-2.7,4c-1,1.2-2,2.2-3.1,3.3
		c-0.4,0.4-0.7,0.4-1.1,0c-2-1.8-3.8-3.8-5.2-6.2c-0.2-0.4-0.4-0.8-0.6-1.2c-0.2-0.4,0-0.8,0.3-1c0.4-0.2,0.8,0,1,0.4
		c0.8,1.8,2,3.3,3.4,4.8c0.5,0.6,1,1.1,1.6,1.6c0.1,0.1,0.1,0.1,0.2,0c1.8-1.9,3.6-3.8,4.8-6.1c0.4-0.7,0.7-1.4,0.8-2.1
		c0.2-1.2-0.1-2.3-0.6-3.3c-1-1.9-2.7-3-4.9-3.1C7.6,1.4,5.4,3,4.6,5.4C4.4,6,4.3,6.6,4.3,7.3C4.3,7.7,4,8,3.6,8
		C3.1,8,2.8,7.7,2.8,7.3c0-3.4,2.3-6.3,5.6-7.1c2.7-0.6,5.6,0.5,7.3,2.8C16.7,4.3,17.1,5.7,17.1,7.3L17.1,7.3z M17.1,7.3"/>
	<path id="XMLID_14_" class="st0" d="M1.9,18.6H18c0-0.1-0.1-0.2-0.1-0.2c-0.7-1.2-1.4-2.5-2.1-3.7c-0.2-0.3-0.2-0.5,0-0.8
		c0.2-0.2,0.4-0.3,0.6-0.3c0.2,0,0.4,0.1,0.6,0.4c1,1.7,1.9,3.3,2.9,5c0.3,0.5-0.1,1.1-0.7,1.1c-3.2,0-6.4,0-9.6,0
		c-2.9,0-5.9,0-8.8,0c-0.7,0-1.1-0.6-0.7-1.2C1.1,17.2,2,15.6,2.9,14c0.2-0.3,0.5-0.5,0.8-0.4c0.5,0.1,0.7,0.6,0.4,1.1
		c-0.5,0.9-1,1.7-1.5,2.6C2.4,17.7,2.2,18.1,1.9,18.6L1.9,18.6z M1.9,18.6"/>
	<path id="XMLID_10_" class="st0" d="M12.8,7.1c0,1.6-1.3,2.9-2.9,2.9c-1.6,0-2.8-1.3-2.8-2.9c0-1.6,1.3-2.9,2.9-2.9
		C11.6,4.3,12.8,5.6,12.8,7.1L12.8,7.1z M10,5.7c-0.8,0-1.4,0.6-1.4,1.4c0,0.8,0.7,1.4,1.5,1.4c0.8,0,1.4-0.7,1.4-1.4
		C11.4,6.4,10.8,5.7,10,5.7L10,5.7z M10,5.7"/>
</g>
</svg>
