<?xml version="1.0" encoding="utf-8"?>
<!-- Generator: Adobe Illustrator 19.0.0, SVG Export Plug-In . SVG Version: 6.00 Build 0)  -->
<svg version="1.1" id="图层_1" xmlns="http://www.w3.org/2000/svg" xmlns:xlink="http://www.w3.org/1999/xlink" x="0px" y="0px"
	 viewBox="0 0 100 20" style="enable-background:new 0 0 100 20;" xml:space="preserve">
<style type="text/css">
	.st0{fill:#6B7484;}
	.st1{fill:#FFFFFF;}
	.st2{font-family:'FZLTXHK--GBK1-0';}
	.st3{font-size:14px;}
</style>
<path id="XMLID_1_" class="st0" d="M55,20H10C4.5,20,0,15.5,0,10l0,0C0,4.5,4.5,0,10,0h45c5.5,0,10,4.5,10,10l0,0
	C65,15.5,60.5,20,55,20z"/>
<text id="XMLID_2_" transform="matrix(1 0 0 1 26.875 14.6836)" class="st1 st2 st3">APP</text>
<path id="XMLID_6_" class="st1" d="M19.7,2.5H12c-1.3,0-1.2,1.2-1.2,1.2V16c0,1.5,1.2,1.4,1.2,1.4h7.7c1.4,0,1.4-1.4,1.4-1.4V3.7
	C21.2,2.3,19.7,2.5,19.7,2.5z M14.8,3.6h2.5c0.1,0,0.2,0.1,0.2,0.2c0,0.1-0.1,0.2-0.2,0.2h-2.5c-0.1,0-0.2-0.1-0.2-0.2
	C14.6,3.6,14.7,3.6,14.8,3.6z M16,17.1c-0.5,0-0.8-0.4-0.8-0.8c0-0.5,0.4-0.8,0.8-0.8c0.5,0,0.8,0.4,0.8,0.8
	C16.8,16.8,16.4,17.1,16,17.1z M19.6,14.5c0,0,0,0.6-0.5,0.6h-6.2c0,0-0.5,0-0.5-0.7c0,0,0-9.3,0-8.8c0,0-0.1-0.6,0.5-0.6h6.2
	c0,0,0.5-0.1,0.5,0.6V14.5z"/>
</svg>
