<?xml version="1.0" encoding="utf-8"?>
<!-- Generator: Adobe Illustrator 19.0.0, SVG Export Plug-In . SVG Version: 6.00 Build 0)  -->
<svg version="1.1" id="图层_1" xmlns="http://www.w3.org/2000/svg" xmlns:xlink="http://www.w3.org/1999/xlink" x="0px" y="0px"
	 viewBox="0 0 15 15" style="enable-background:new 0 0 15 15;" xml:space="preserve">
<style type="text/css">
	.st0{fill:#5394D0;}
</style>
<g id="XMLID_6_">
	<path id="XMLID_10_" class="st0" d="M3.4,7.2v3c0,0,1.8,1.9,4.3,1.9c3.2,0,4.3-1.9,4.3-1.9V7.1L8.3,9.6c-0.2,0.1-0.6,0.2-0.9,0
		L3.4,7.2L3.4,7.2z"/>
	<path id="XMLID_7_" class="st0" d="M7.8,4.5c-0.4,0-0.9-0.1-1.2-0.3L2.2,5.8L7.5,9c0.2,0.1,0.6,0.1,0.9,0l6.2-4.2
		C14.8,4.7,15,4.3,15,4c0-0.3-0.2-0.6-0.5-0.8L8.1,0.1C7.8,0,7.4,0,7.2,0.1L1,3.7C0.7,3.8,0.6,4.1,0.6,4.5c0,0.3,0.2,0.6,0.5,0.8V11
		c-0.3,0.1-0.6,0.4-0.6,0.8c0,0.3,0.1,0.5,0.3,0.6c-0.1,0.4-0.2,0.8-0.5,1C0.1,13.5,0,13.8,0,14c0,0.3,0.2,0.5,0.4,0.7l0.1,0.1
		C0.7,15,1,15,1.2,15s0.5-0.2,0.6-0.4c0.4-0.8,0.2-1.8,0-2.3c0.1-0.1,0.2-0.4,0.2-0.6c0-0.4-0.2-0.6-0.6-0.8V5.4l4.9-1.7
		c0.1-0.2,0.2-0.4,0.2-0.4c0,0.1,0,0.8,1.1,0.8c0.6,0,1.1-0.2,1.1-0.6c0-0.1,0-0.1-0.1-0.3C9,3.5,9.1,3.7,9.1,3.9
		C9.1,4.3,8.5,4.5,7.8,4.5L7.8,4.5z"/>
</g>
</svg>
