<?xml version="1.0" encoding="utf-8"?>
<!-- Generator: Adobe Illustrator 19.0.0, SVG Export Plug-In . SVG Version: 6.00 Build 0)  -->
<svg version="1.1" id="图层_1" xmlns="http://www.w3.org/2000/svg" xmlns:xlink="http://www.w3.org/1999/xlink" x="0px" y="0px"
	 viewBox="0 0 15 15" style="enable-background:new 0 0 15 15;" xml:space="preserve">
<style type="text/css">
	.st0{fill:#E75180;}
</style>
<g id="XMLID_5_">
	<path id="XMLID_6_" class="st0" d="M8.8,11c-2.4,0-4.3-2-4.3-4.5c0-2.5,1.9-4.5,4.3-4.5c2.4,0,4.3,2,4.3,4.5
		C13.2,8.9,11.2,11,8.8,11L8.8,11z M2.6,6.4c0,1.3,0.4,2.5,1,3.5l-1,1L1.7,10c-0.4-0.4-0.9-0.4-1.3,0l0,0c-0.4,0.4-0.4,1,0,1.4
		l0.9,0.9l-1,1.1c-0.4,0.4-0.4,1,0,1.4l0,0c0.4,0.4,0.9,0.4,1.3,0l1-1.1l0.8,0.8c0.4,0.4,0.9,0.4,1.3,0l0,0c0.4-0.4,0.4-1,0-1.4
		l-0.8-0.8l0.9-0.9c1.1,1,2.5,1.5,4,1.5c3.4,0,6.2-2.9,6.2-6.4C15,2.9,12.2,0,8.8,0C5.4,0,2.6,2.9,2.6,6.4L2.6,6.4z M2.6,6.4"/>
</g>
</svg>
