<?xml version="1.0" encoding="utf-8"?>
<!-- Generator: Adobe Illustrator 19.0.0, SVG Export Plug-In . SVG Version: 6.00 Build 0)  -->
<svg version="1.1" id="图层_1" xmlns="http://www.w3.org/2000/svg" xmlns:xlink="http://www.w3.org/1999/xlink" x="0px" y="0px"
	 viewBox="0 0 15 15" style="enable-background:new 0 0 15 15;" xml:space="preserve">
<style type="text/css">
	.st0{fill:#2B78BE;}
</style>
<g id="XMLID_5_">
	<path id="XMLID_6_" class="st0" d="M14.9,0.7c-0.1-0.3-0.3-0.5-0.6-0.6C14.1,0,14,0,13.8,0H6.9C6.3,0,5.8,0.5,5.8,1.2
		c0,0.6,0.5,1.2,1.2,1.2h4.1L7.9,5.4C7.1,4.9,6.2,4.6,5.2,4.6C2.3,4.6,0,6.9,0,9.8C0,12.7,2.3,15,5.2,15h0c2.9,0,5.2-2.3,5.2-5.2
		c0-1-0.3-2-0.8-2.8l3.1-3.1v4.1c0,0.6,0.5,1.2,1.2,1.2c0.6,0,1.2-0.5,1.2-1.2V1.2C15,1,15,0.9,14.9,0.7L14.9,0.7z M5.2,12.7
		c-1.6,0-2.9-1.3-2.9-2.9c0-1.6,1.3-2.9,2.9-2.9c1.6,0,2.9,1.3,2.9,2.9C8.1,11.4,6.8,12.7,5.2,12.7L5.2,12.7z M5.2,12.7"/>
</g>
</svg>
