<?xml version="1.0" encoding="utf-8"?>
<!-- Generator: Adobe Illustrator 19.0.0, SVG Export Plug-In . SVG Version: 6.00 Build 0)  -->
<svg version="1.1" id="图层_1" xmlns="http://www.w3.org/2000/svg" xmlns:xlink="http://www.w3.org/1999/xlink" x="0px" y="0px"
	 viewBox="0 0 15 15" style="enable-background:new 0 0 15 15;" xml:space="preserve">
<style type="text/css">
	.st0{fill:#5394D0;}
</style>
<path id="XMLID_8_" class="st0" d="M13.6,3.1H8.9V1.2C8.9,0.5,8.2,0,7.5,0S6.2,0.5,6.2,1.2v1.9H1.4C0.6,3.1,0,3.7,0,4.5v9.2
	C0,14.4,0.6,15,1.4,15h12.3c0.8,0,1.4-0.6,1.4-1.4V4.5C15,3.7,14.4,3.1,13.6,3.1z M7.5,1C7.8,1,8,1.2,8,1.5S7.8,2,7.5,2S7,1.8,7,1.5
	S7.2,1,7.5,1z M4.6,5c1,0,1.9,0.8,1.9,1.9s-0.8,2-1.9,2S2.7,8,2.7,7S3.5,5,4.6,5z M7.5,12.4H1.6v-0.8c0-1.2,0.9-2.2,2.1-2.2h1.7
	c1.2,0,2.1,1,2.1,2.2L7.5,12.4L7.5,12.4z M13.4,8.5H9.1V7.8h4.3V8.5z M13.6,6.9H8V6.1h5.7V6.9z"/>
</svg>
