<?xml version="1.0" encoding="utf-8"?>
<!-- Generator: Adobe Illustrator 19.0.0, SVG Export Plug-In . SVG Version: 6.00 Build 0)  -->
<svg version="1.1" id="图层_1" xmlns="http://www.w3.org/2000/svg" xmlns:xlink="http://www.w3.org/1999/xlink" x="0px" y="0px"
	 viewBox="2 0 24 20" style="enable-background:new 2 0 24 20;" xml:space="preserve">
<style type="text/css">
	.st0{fill:#E1E1E1;}
</style>
<g id="XMLID_7_">
	<path id="XMLID_8_" class="st0" d="M21.1,17.1c0,0.4-0.1,0.8-0.2,1.1c-0.2,0.3-0.4,0.6-0.6,0.9c-0.3,0.3-0.6,0.5-0.9,0.6
		C19,20,18.6,20,18.2,20H9.9c-0.4,0-0.8-0.1-1.2-0.2c-0.4-0.2-0.7-0.4-0.9-0.6c-0.3-0.3-0.5-0.6-0.6-0.9C7,17.9,7,17.5,7,17.1V2.9
		c0-0.4,0.1-0.8,0.2-1.1c0.2-0.3,0.4-0.7,0.6-0.9c0.3-0.3,0.6-0.5,0.9-0.6C9.1,0.1,9.5,0,9.9,0h8.2c0.4,0,0.8,0.1,1.2,0.2
		c0.4,0.2,0.7,0.4,0.9,0.6c0.3,0.3,0.5,0.6,0.6,0.9C21,2,21,2.4,21,2.8L21.1,17.1L21.1,17.1L21.1,17.1L21.1,17.1z M19.2,4H8.8V16
		h10.4V4L19.2,4L19.2,4L19.2,4z M14,16.6c-0.3,0-0.6,0.1-0.8,0.4c-0.2,0.2-0.4,0.5-0.4,0.9c0,0.3,0.1,0.6,0.4,0.9
		c0.2,0.2,0.5,0.4,0.8,0.4s0.6-0.1,0.9-0.4c0.2-0.2,0.3-0.5,0.3-0.9c0-0.3-0.1-0.6-0.3-0.9C14.6,16.8,14.3,16.6,14,16.6L14,16.6
		L14,16.6L14,16.6z M15.8,2c0-0.1,0-0.2-0.1-0.3s-0.2-0.1-0.3-0.1h-2.9c-0.1,0-0.2,0-0.2,0.1c-0.1,0.1-0.1,0.2-0.1,0.3
		c0,0.1,0,0.2,0.1,0.3s0.2,0.1,0.3,0.1h2.9c0.1,0,0.2,0,0.3-0.1C15.8,2.2,15.8,2.1,15.8,2L15.8,2L15.8,2L15.8,2z"/>
</g>
</svg>
