<?xml version="1.0" encoding="utf-8"?>
<!-- Generator: Adobe Illustrator 19.0.0, SVG Export Plug-In . SVG Version: 6.00 Build 0)  -->
<svg version="1.1" id="图层_1" xmlns="http://www.w3.org/2000/svg" xmlns:xlink="http://www.w3.org/1999/xlink" x="0px" y="0px"
	 viewBox="0 0 17 17" style="enable-background:new 0 0 17 17;" xml:space="preserve">
<style type="text/css">
	.st0{fill:#313944;}
</style>
<g id="XMLID_10_">
	<path id="XMLID_11_" class="st0" d="M12.8,10.6h-2.1v2.1h2.1V10.6L12.8,10.6z M12.8,7.4h-2.1v2.1h2.1V7.4L12.8,7.4z M14.9,0h-1.1
		v2.1h-2.1V0H5.3v2.1H3.2V0H2.1C1,0,0,1,0,2.1v12.8C0,16,1,17,2.1,17h12.7c1.2,0,2.1-1,2.1-2.1V2.1C17,1,16,0,14.9,0L14.9,0z
		 M14.9,14.9H2.1V5.3h12.7V14.9L14.9,14.9z M6.4,10.6H4.3v2.1h2.1V10.6L6.4,10.6z M9.6,10.6H7.4v2.1h2.1V10.6L9.6,10.6z M9.6,7.4
		H7.4v2.1h2.1V7.4L9.6,7.4z M9.6,7.4"/>
</g>
</svg>
