<?xml version="1.0" encoding="utf-8"?>
<!-- Generator: Adobe Illustrator 19.0.0, SVG Export Plug-In . SVG Version: 6.00 Build 0)  -->
<svg version="1.1" id="图层_1" xmlns="http://www.w3.org/2000/svg" xmlns:xlink="http://www.w3.org/1999/xlink" x="0px" y="0px"
	 viewBox="0 0 100 20" style="enable-background:new 0 0 100 20;" xml:space="preserve">
<style type="text/css">
	.st0{fill:#6C7686;}
	.st1{fill:#FFFFFF;}
	.st2{font-family:'FZLTXHK--GBK1-0';}
	.st3{font-size:14px;}
</style>
<path id="XMLID_1_" class="st0" d="M70,20H10C4.5,20,0,15.5,0,10l0,0C0,4.5,4.5,0,10,0h60c5.5,0,10,4.5,10,10l0,0
	C80,15.5,75.5,20,70,20z"/>
<text id="XMLID_2_" transform="matrix(1 0 0 1 24.375 14.1836)" class="st1 st2 st3">Service</text>
<g id="XMLID_5_">
	<path id="XMLID_12_" class="st1" d="M18.3,2.5H9.1l-3,2.4v3.7h15V4.9L18.3,2.5z M17.4,7.9c-0.3,0-0.5-0.2-0.5-0.5s0.2-0.5,0.5-0.5
		s0.5,0.2,0.5,0.5C17.9,7.7,17.7,7.9,17.4,7.9z M19.4,7.9c-0.3,0-0.5-0.2-0.5-0.5s0.2-0.5,0.5-0.5s0.5,0.2,0.5,0.5
		C19.9,7.7,19.7,7.9,19.4,7.9z"/>
	<path id="XMLID_26_" class="st1" d="M6.1,13.4h15V9.5h-15C6.1,9.5,6.1,13.4,6.1,13.4z M19.4,11c0.3,0,0.5,0.2,0.5,0.5
		S19.7,12,19.4,12s-0.5-0.2-0.5-0.5S19.1,11,19.4,11z M17.4,11c0.3,0,0.5,0.2,0.5,0.5S17.7,12,17.4,12s-0.5-0.2-0.5-0.5
		S17.1,11,17.4,11z"/>
	<path id="XMLID_30_" class="st1" d="M6.1,17.5h15v-3.3h-15C6.1,14.2,6.1,17.5,6.1,17.5z M19.4,15.3c0.3,0,0.5,0.2,0.5,0.5
		s-0.2,0.5-0.5,0.5s-0.5-0.2-0.5-0.5S19.1,15.3,19.4,15.3z M17.4,15.3c0.3,0,0.5,0.2,0.5,0.5s-0.2,0.5-0.5,0.5s-0.5-0.2-0.5-0.5
		S17.1,15.3,17.4,15.3z"/>
</g>
</svg>
