<?xml version="1.0" encoding="utf-8"?>
<!-- Generator: Adobe Illustrator 19.0.0, SVG Export Plug-In . SVG Version: 6.00 Build 0)  -->
<svg version="1.1" id="图层_1" xmlns="http://www.w3.org/2000/svg" xmlns:xlink="http://www.w3.org/1999/xlink" x="0px" y="0px"
	 viewBox="0 0 24 24" style="enable-background:new 0 0 24 24;" xml:space="preserve">
<style type="text/css">
	.st0{fill:#E9B34B;stroke:#E47B24;stroke-width:0.5;stroke-miterlimit:10;}
</style>
<g id="XMLID_5_">
	<path id="XMLID_6_" class="st0" d="M18.8,23.8c-0.1,0-0.2,0-0.3-0.1L11.9,20l-6.5,3.6c-0.2,0.1-0.5,0.1-0.7-0.1
		c-0.2-0.1-0.3-0.4-0.3-0.6l1.3-7.6L0.4,9.9C0.2,9.6,0.2,9.4,0.3,9.2c0.1-0.3,0.3-0.4,0.5-0.5l7.3-1.1l3.3-6.9
		c0.1-0.2,0.4-0.4,0.6-0.4c0.3,0,0.5,0.1,0.6,0.4l3.3,6.9l7.3,1.1c0.2,0.1,0.4,0.2,0.5,0.5s0,0.5-0.1,0.7l-5.3,5.4l1.3,7.6
		c0.1,0.3-0.1,0.5-0.3,0.6C19.1,23.8,18.9,23.8,18.8,23.8L18.8,23.8L18.8,23.8z"/>
</g>
</svg>
