<?xml version="1.0" encoding="utf-8"?>
<!-- Generator: Adobe Illustrator 19.0.0, SVG Export Plug-In . SVG Version: 6.00 Build 0)  -->
<svg version="1.1" id="图层_1" xmlns="http://www.w3.org/2000/svg" xmlns:xlink="http://www.w3.org/1999/xlink" x="0px" y="0px"
	 viewBox="-5 7 12 12" style="enable-background:new -5 7 12 12;" xml:space="preserve">
<style type="text/css">
	.st0{fill:#6C7686;}
</style>
<g>
	<path class="st0" d="M5.2,8.8C4.1,7.6,2.6,7,1,7s-3.1,0.6-4.2,1.8C-4.4,9.9-5,11.4-5,13s0.6,3.1,1.8,4.2C-2.1,18.4-0.6,19,1,19
		s3.1-0.6,4.2-1.8C7.6,14.9,7.6,11.1,5.2,8.8L5.2,8.8L5.2,8.8L5.2,8.8z M4.7,16.7c-1,1-2.3,1.5-3.7,1.5s-2.7-0.5-3.7-1.5
		s-1.5-2.3-1.5-3.7s0.5-2.7,1.5-3.7S-0.4,7.8,1,7.8s2.7,0.5,3.7,1.5C6.7,11.3,6.7,14.7,4.7,16.7L4.7,16.7L4.7,16.7L4.7,16.7z
		 M3.6,14.5l-2.1-1.2V10c0-0.3-0.2-0.5-0.5-0.5S0.5,9.7,0.5,10v3.5c0,0.2,0.2,0.3,0.4,0.4c0,0.1,0.2,0.1,0.2,0.2l2.1,1.3
		c0.2,0.1,0.5,0.1,0.6-0.2C4,14.9,3.8,14.6,3.6,14.5L3.6,14.5L3.6,14.5L3.6,14.5z"/>
</g>
</svg>
