<?xml version="1.0" encoding="utf-8"?>
<!-- Generator: Adobe Illustrator 19.0.0, SVG Export Plug-In . SVG Version: 6.00 Build 0)  -->
<svg version="1.1" id="图层_1" xmlns="http://www.w3.org/2000/svg" xmlns:xlink="http://www.w3.org/1999/xlink" x="0px" y="0px"
	 viewBox="0 0 100 20" style="enable-background:new 0 0 100 20;" xml:space="preserve">
<style type="text/css">
	.st0{fill:#6C7686;}
	.st1{fill:#FFFFFF;}
	.st2{font-family:'FZLTXHK--GBK1-0';}
	.st3{font-size:14px;}
</style>
<path id="XMLID_1_" class="st0" d="M55,20H10C4.5,20,0,15.5,0,10l0,0C0,4.5,4.5,0,10,0h45c5.5,0,10,4.5,10,10l0,0
	C65,15.5,60.5,20,55,20z"/>
<text id="XMLID_2_" transform="matrix(1 0 0 1 28.25 14.6836)" class="st1 st2 st3">Web</text>
<g id="XMLID_18_">
	<path id="XMLID_19_" class="st1" d="M22.7,16.6H9.1c-0.4,0-0.7-0.3-0.7-0.7V4.1c0-0.4,0.3-0.7,0.7-0.7h13.6c0.4,0,0.7,0.3,0.7,0.7
		v11.7C23.4,16.2,23.1,16.6,22.7,16.6L22.7,16.6z M19.9,15.9h2.8V9.8h-0.2l0,0h-2.6L19.9,15.9L19.9,15.9z M12.6,15.9h6.6V9.8h-6.6
		V15.9L12.6,15.9z M9.1,15.9h2.8V9.8H9.1V15.9L9.1,15.9z M9.8,4.1c-0.4,0-0.7,0.3-0.7,0.7c0,0.4,0.3,0.7,0.7,0.7s0.7-0.3,0.7-0.7
		C10.5,4.5,10.2,4.1,9.8,4.1L9.8,4.1z M11.9,4.1c-0.4,0-0.7,0.3-0.7,0.7c0,0.4,0.3,0.7,0.7,0.7s0.7-0.3,0.7-0.7
		C12.6,4.5,12.3,4.1,11.9,4.1L11.9,4.1z M14,4.1c-0.4,0-0.7,0.3-0.7,0.7c0,0.4,0.3,0.7,0.7,0.7s0.7-0.3,0.7-0.7
		C14.7,4.5,14.4,4.1,14,4.1L14,4.1z M22,6.3H9.8H9.1v2.8h2.8h0.7h6.6h0.7h2.6l0,0h0.2V6.3H22L22,6.3z"/>
</g>
</svg>
