<?xml version="1.0" encoding="utf-8"?>
<!-- Generator: Adobe Illustrator 19.0.0, SVG Export Plug-In . SVG Version: 6.00 Build 0)  -->
<svg version="1.1" id="图层_1" xmlns="http://www.w3.org/2000/svg" xmlns:xlink="http://www.w3.org/1999/xlink" x="0px" y="0px"
	 viewBox="2 0 24 20" style="enable-background:new 2 0 24 20;" xml:space="preserve">
<style type="text/css">
	.st0{fill:#80C269;}
</style>
<g id="XMLID_10_">
	<path id="XMLID_16_" class="st0" d="M18.2,6c0.3,0,0.5,0,0.8,0.1C18.3,2.6,14.7,0,10.5,0C5.8,0,2,3.3,2,7.4c0,2.4,1.3,4.3,3.4,5.9
		l-0.8,2.6l3-1.5c1.1,0.2,1.9,0.4,3,0.4c0.3,0,0.5,0,0.8,0c-0.3-0.6-0.4-1.2-0.4-1.9C11,9.1,14.2,6,18.2,6L18.2,6z M13.7,3.7
		c0.6,0,1.1,0.4,1.1,1.1s-0.4,1.1-1.1,1.1c-0.6,0-1.3-0.4-1.3-1.1S13,3.7,13.7,3.7L13.7,3.7z M7.7,5.9c-0.6,0-1.3-0.4-1.3-1.1
		S7,3.7,7.7,3.7c0.6,0,1.1,0.4,1.1,1.1C8.8,5.4,8.4,5.9,7.7,5.9L7.7,5.9z"/>
	<path id="XMLID_11_" class="st0" d="M26,12.8c0-3.5-3.4-6.3-7.2-6.3c-4,0-7.2,2.8-7.2,6.3s3.2,6.3,7.2,6.3c0.8,0,1.7-0.2,2.5-0.4
		l2.3,1.3L23,17.8C24.7,16.5,26,14.8,26,12.8L26,12.8z M16.4,11.7c-0.4,0-0.8-0.4-0.8-0.9c0-0.4,0.4-0.9,0.8-0.9
		c0.6,0,1.1,0.4,1.1,0.9S17.1,11.7,16.4,11.7L16.4,11.7z M21.1,11.7c-0.4,0-0.8-0.4-0.8-0.9c0-0.4,0.4-0.9,0.8-0.9
		c0.6,0,1.1,0.4,1.1,0.9S21.8,11.7,21.1,11.7L21.1,11.7z"/>
</g>
</svg>
