<?xml version="1.0" encoding="utf-8"?>
<!-- Generator: Adobe Illustrator 19.0.0, SVG Export Plug-In . SVG Version: 6.00 Build 0)  -->
<svg version="1.1" id="图层_1" xmlns="http://www.w3.org/2000/svg" xmlns:xlink="http://www.w3.org/1999/xlink" x="0px" y="0px"
	 viewBox="0 0 18 20" style="enable-background:new 0 0 18 20;" xml:space="preserve">
<style type="text/css">
	.st0{fill:#313944;}
</style>
<g id="XMLID_11_">
	<path id="XMLID_12_" class="st0" d="M16.5,0H1.5C0.7,0,0,0.7,0,1.5v16.9C0,19.3,0.7,20,1.5,20h14.9c0.8,0,1.5-0.7,1.5-1.5V1.5
		C18,0.7,17.3,0,16.5,0L16.5,0z M10.3,16.5h-8c-0.2,0-0.4-0.2-0.4-0.4c0-0.2,0.2-0.4,0.4-0.4h8c0.2,0,0.4,0.2,0.4,0.4
		C10.7,16.3,10.5,16.5,10.3,16.5L10.3,16.5z M10.3,12.3h-8c-0.2,0-0.4-0.2-0.4-0.4c0-0.2,0.2-0.4,0.4-0.4h8c0.2,0,0.4,0.2,0.4,0.4
		C10.7,12.1,10.5,12.3,10.3,12.3L10.3,12.3z M10.3,8.1h-8c-0.2,0-0.4-0.2-0.4-0.4c0-0.2,0.2-0.4,0.4-0.4h8c0.2,0,0.4,0.2,0.4,0.4
		C10.7,7.9,10.5,8.1,10.3,8.1L10.3,8.1z M10.3,3.9h-8c-0.2,0-0.4-0.2-0.4-0.4c0-0.2,0.2-0.4,0.4-0.4h8c0.2,0,0.4,0.2,0.4,0.4
		C10.7,3.7,10.5,3.9,10.3,3.9L10.3,3.9z M15,14C15,14,15,14,15,14L14,16.3c0,0.1-0.1,0.1-0.1,0.1c-0.1,0-0.1,0.1-0.2,0.1
		c-0.1,0-0.3-0.1-0.3-0.2L12.4,14L15,14C15,14,15,14,15,14L15,14z M15,13.3l-2.7,0.1l0-7l2.8-0.1L15,13.3L15,13.3z M15.2,5.6
		l-2.8,0.1l0-0.7c0-0.1,0-0.5,0.4-0.7c0.1-0.1,0.3-0.1,0.5-0.2c0.6-0.1,1.2,0,1.2,0c0,0,0.1,0,0.1,0c0.1,0,0.6,0.3,0.7,0.8
		C15.2,5,15.2,5.3,15.2,5.6L15.2,5.6z M15.2,5.6"/>
</g>
</svg>
