<?xml version="1.0" encoding="utf-8"?>
<!-- Generator: Adobe Illustrator 19.0.0, SVG Export Plug-In . SVG Version: 6.00 Build 0)  -->
<svg version="1.1" id="图层_1" xmlns="http://www.w3.org/2000/svg" xmlns:xlink="http://www.w3.org/1999/xlink" x="0px" y="0px"
	 viewBox="0 0 15 15" style="enable-background:new 0 0 15 15;" xml:space="preserve">
<style type="text/css">
	.st0{fill:#6B7484;}
</style>
<g id="XMLID_5_">
	<path id="XMLID_6_" class="st0" d="M0.9,0h6.6C8,0,8.1,0.2,8.6,0.8l5.8,5.8c0.8,0.8,0.8,2.1,0,2.9l-5,5c-0.8,0.8-2.1,0.8-2.9,0
		L0.7,8.6C0.3,8.2,0,8,0,7.5V0.9C0,0.4,0.4,0,0.9,0L0.9,0z M3.4,5.1c0.9,0,1.6-0.7,1.6-1.6c0-0.9-0.7-1.6-1.6-1.6
		c-0.9,0-1.6,0.7-1.6,1.6C1.8,4.3,2.5,5.1,3.4,5.1L3.4,5.1z M3.4,5.1"/>
</g>
</svg>
