<?xml version="1.0" encoding="utf-8"?>
<!-- Generator: Adobe Illustrator 19.0.0, SVG Export Plug-In . SVG Version: 6.00 Build 0)  -->
<svg version="1.1" id="图层_1" xmlns="http://www.w3.org/2000/svg" xmlns:xlink="http://www.w3.org/1999/xlink" x="0px" y="0px"
	 viewBox="0 0 100 20" style="enable-background:new 0 0 100 20;" xml:space="preserve">
<style type="text/css">
	.st0{fill:#6C7686;}
	.st1{fill:#FFFFFF;}
	.st2{font-family:'FZLTXHK--GBK1-0';}
	.st3{font-size:14.14px;}
</style>
<path id="XMLID_1_" class="st0" d="M90.1,20H9.9C4.5,20,0,15.5,0,10l0,0C0,4.5,4.5,0,9.9,0h80.2c5.4,0,9.9,4.5,9.9,10l0,0
	C100,15.5,95.5,20,90.1,20z"/>
<text id="XMLID_2_" transform="matrix(0.9901 0 0 1 24.375 14.2256)" class="st1 st2 st3">微信公众号</text>
<g id="XMLID_10_">
	<path id="XMLID_4_" class="st1" d="M16.4,7c0.2,0,0.3,0,0.6,0c-0.5-2.7-3.2-4.6-6.4-4.6C7.1,2.4,4.2,4.9,4.2,8c0,1.8,1,3.3,2.6,4.5
		l-0.6,2l2.2-1.1c0.8,0.2,1.4,0.3,2.2,0.3c0.2,0,0.4,0,0.6,0c-0.2-0.5-0.2-1-0.2-1.5C11,9.3,13.4,7,16.4,7L16.4,7z M13,5.2
		c0.4,0,0.8,0.3,0.8,0.8S13.5,6.8,13,6.8S12,6.5,12,6S12.5,5.2,13,5.2L13,5.2z M8.5,6.9c-0.4,0-1-0.3-1-0.8s0.4-0.8,1-0.8
		c0.4,0,0.8,0.3,0.8,0.8C9.3,6.5,9,6.9,8.5,6.9L8.5,6.9z"/>
	<path id="XMLID_3_" class="st1" d="M22.2,12.1c0-2.7-2.6-4.8-5.4-4.8c-3,0-5.4,2.1-5.4,4.8s2.4,4.8,5.4,4.8c0.6,0,1.3-0.2,1.9-0.3
		l1.7,1L20,15.9C21.2,14.9,22.2,13.6,22.2,12.1L22.2,12.1z M15,11.3c-0.3,0-0.6-0.3-0.6-0.7c0-0.3,0.3-0.7,0.6-0.7
		c0.4,0,0.8,0.3,0.8,0.7S15.5,11.3,15,11.3L15,11.3z M18.5,11.3c-0.3,0-0.6-0.3-0.6-0.7c0-0.3,0.3-0.7,0.6-0.7
		c0.5,0,0.8,0.3,0.8,0.7S19.1,11.3,18.5,11.3L18.5,11.3z"/>
</g>
</svg>
