<?xml version="1.0" encoding="utf-8"?>
<!-- Generator: Adobe Illustrator 19.0.0, SVG Export Plug-In . SVG Version: 6.00 Build 0)  -->
<svg version="1.1" id="图层_1" xmlns="http://www.w3.org/2000/svg" xmlns:xlink="http://www.w3.org/1999/xlink" x="0px" y="0px"
	 viewBox="0 0 15 15" style="enable-background:new 0 0 15 15;" xml:space="preserve">
<style type="text/css">
	.st0{fill:#6C7686;}
</style>
<g id="XMLID_8_">
	<path id="XMLID_15_" class="st0" d="M6.6,6.6c-0.5,0.5-0.5,1.3,0,1.8s1.3,0.5,1.8,0c0.3-0.3,0.4-0.8,0.3-1.2L13,2.5
		c0.2-0.2,0.4-0.5,0.2-0.7c-0.1-0.1-0.4,0-0.7,0.2L7.9,6.3C7.5,6.1,7,6.2,6.6,6.6L6.6,6.6z"/>
	<path id="XMLID_12_" class="st0" d="M8,5.1l2.8-2.2C8.6,1.3,5.5,1.5,3.5,3.5c-2.2,2.2-2.2,5.8,0,8s5.8,2.2,8,0c2-2,2.2-5,0.7-7.2
		L9.9,7.1C10,7.9,9.8,8.7,9.2,9.2c-1,1-2.5,1-3.5,0s-1-2.5,0-3.5C6.4,5.2,7.2,4.9,8,5.1L8,5.1z"/>
	<path id="XMLID_9_" class="st0" d="M13.4,2.8L13,3.2c2.2,2.8,2,6.8-0.5,9.3c-2.7,2.7-7.1,2.7-9.9,0c-1.3-1.3-2-3.1-2-4.9
		s0.7-3.6,2-4.9C5.1,0,9.1-0.2,11.9,2.1l0.3-0.4C10.8,0.5,9-0.1,7.1,0C5.3,0.1,3.5,0.9,2.2,2.2C1.5,2.9,0.9,3.7,0.5,4.7
		C0.2,5.6,0,6.5,0,7.5s0.2,1.9,0.5,2.8c0.4,0.9,0.9,1.8,1.6,2.5s1.6,1.3,2.5,1.6c1,0.4,1.9,0.6,2.9,0.6s1.9-0.2,2.8-0.5
		c0.9-0.4,1.8-0.9,2.5-1.6c1.3-1.3,2.1-3,2.2-4.9S14.5,4.3,13.4,2.8L13.4,2.8z"/>
</g>
</svg>
