<?xml version="1.0" encoding="utf-8"?>
<!-- Generator: Adobe Illustrator 19.0.0, SVG Export Plug-In . SVG Version: 6.00 Build 0)  -->
<svg version="1.1" id="图层_1" xmlns="http://www.w3.org/2000/svg" xmlns:xlink="http://www.w3.org/1999/xlink" x="0px" y="0px"
	 viewBox="0 0 15 15" style="enable-background:new 0 0 15 15;" xml:space="preserve">
<style type="text/css">
	.st0{fill:#6B7584;}
</style>
<g id="XMLID_6_">
	<path id="XMLID_7_" class="st0" d="M7.5,0C3.3,0,0,3.3,0,7.5S3.3,15,7.5,15S15,11.7,15,7.5S11.7,0,7.5,0L7.5,0z M7.5,12
		C5,12,3,10,3,7.5C3,6.1,3.6,4.8,4.7,4H4C3.6,4,3.4,3.8,3.4,3.4S3.6,2.9,4,2.9h2c0.3,0,0.5,0.2,0.5,0.5v2C6.5,5.8,6.3,6,6,6
		S5.5,5.8,5.5,5.5V4.6C4.6,5.2,4,6.3,4,7.5C4,9.4,5.6,11,7.5,11C7.8,11,8,11.2,8,11.6C8,11.8,7.8,12,7.5,12L7.5,12z M11,11
		c0.3,0,0.5,0.2,0.5,0.5c0,0.3-0.2,0.5-0.5,0.5H9c-0.3,0-0.5-0.2-0.5-0.5v-2C8.5,9.2,8.7,9,9,9c0.3,0,0.5,0.2,0.5,0.5v0.9
		C10.4,9.7,11,8.7,11,7.5C11,5.6,9.4,4,7.5,4C7.2,4,7,3.8,7,3.4C7,3.2,7.2,3,7.5,3C10,3,12,5,12,7.5c0,1.4-0.6,2.7-1.7,3.5H11L11,11
		z"/>
</g>
</svg>
